<?xml version="1.0" encoding="utf-8"?>
<!-- Generator: Adobe Illustrator 17.0.0, SVG Export Plug-In . SVG Version: 6.00 Build 0)  -->
<!DOCTYPE svg PUBLIC "-//W3C//DTD SVG 1.1//EN" "http://www.w3.org/Graphics/SVG/1.1/DTD/svg11.dtd">
<svg version="1.1" id="Layer_1" xmlns="http://www.w3.org/2000/svg" xmlns:xlink="http://www.w3.org/1999/xlink" x="0px" y="0px"
	 width="790.939px" height="893.992px" viewBox="0 0 790.939 893.992" enable-background="new 0 0 790.939 893.992"
	 xml:space="preserve">
<g>
	<path fill="#8F4A1C" d="M691.155,567.479c-0.527-2.175,0.793-21.192,32.562-17.34c19.924,2.178,20.926,20.857,18.768,21.827
		c-2.98,1.34-10.432-2.502-24.995-2.859C705.336,568.809,692.427,572.734,691.155,567.479"/>
	<path fill="#80CC38" d="M728.189,541.08c0.276,0.994,2.313,3.062,3.941,2.203c0.595-0.314,1.387-1.002,1.813-0.873
		c0.409,0.124,0.456,0.132,0.662,0.148c0.391,0.031,0.547-0.023,1.24-0.671c0.437-0.409,1.563-0.746,1.708-0.724
		c0.354,0.054,0.421,0.576,0.402,1.009c-0.025,0.595-0.343,1.068-0.126,1.276c0.352,0.336,1.906-0.924,3.04-1.566
		c0.787-0.446,1.483-0.423,1.705-0.198c0.137,0.138,0.139,0.39,0.002,0.948c-0.151,0.612-0.626,1.277-0.418,1.567
		c0.147,0.205,1.67-0.379,2.566-0.599c0.783-0.192,1.141,0.04,1.284,0.211c0.104,0.126-0.11,0.41-0.308,0.825
		c-0.202,0.424-0.779,0.649-0.594,0.975c0.262,0.463,1.343-0.014,2.165,0.255c0.57,0.186,1.109,0.458,1.146,0.606
		c0.099,0.392-0.41,0.39-0.258,0.897c0.1,0.332,0.342,0.383,0.717,0.532c0.286,0.113,0.448,0.593,0.464,0.805
		c0.028,0.372-0.579,0.745-1.117,0.872c-0.955,0.224-0.942-0.187-1.337,0.082c-0.592,0.403,0.101,1.269-0.865,1.729
		c-0.414,0.197-1.166-0.315-1.345-0.462c-0.985-0.809-1.319-0.993-1.604-0.953c-0.291,0.041-0.052,0.775-0.177,1.426
		c-0.116,0.607-0.061,0.948-0.329,0.99c-0.512,0.08-1.096-0.377-1.452-0.621c-0.949-0.649-1.326-2.339-2.211-2.405
		c-1.595-0.12-0.541,1.903-1.681,1.814c-0.179-0.014-0.638-0.322-0.746-0.427c-0.747-0.73-1.417-2.65-1.829-2.752
		c-0.428-0.105,0.006,1.061-0.769,0.926c-0.871-0.151-1.44-1.752-2.73-3.588c-0.537-0.765-2.49-1.717-3.466-2.046
		C726.46,542.877,728.158,540.97,728.189,541.08"/>
	<path fill="#8F4A1C" d="M716.033,549.626c8.223,0.701,5.078-7.153,6.029-8.393c0.697-0.909,2.77-2.566,3.916-2.844
		c0.75-0.182,2.948-0.519,3.235,0.635c0.291,1.172-6.731,10.074,2.509,13.21"/>
	<path fill="#8F4A1C" d="M737.706,576.196c0.757,3.057,0.989,6.128,0.869,9.908c-4.7,1.848-8.287,2.844-12.381,1.98
		c-0.507-2.188-0.953-6.408-0.124-13.378l-4.864-0.338c0.027,5.254,0.049,9.109,1.107,14.973c1.296,7.178,3.38,13.419,6.661,20.463
		l3.245-2.839c-3.068-6.328-4.161-8.652-5.247-14.309c4.309,0.456,6.639-0.695,11.318-2.325c0.107,1.729-0.404,4.872-1.03,8.202
		l2.831,0.919c1.208-4.029,2.459-15.519,1.585-22.764L737.706,576.196z"/>
	<path fill="#8F4A1C" d="M712.331,574.503c-0.811,8.978,2.06,21.937,5.125,28.489c0.966,2.065,1.884,3.822,3.124,5.956
		c-2.534-0.158-5.944-1.291-8.123-2.935c-8.847-6.676-14.128-19.625-14.574-31.304l-5.629-0.578
		c0.567,10.19,8.442,37.864,30.564,38.805c1.983-0.084,2.773-1.922,2.155-2.998c-6.453-11.232-8.771-23.99-7.732-35.612
		L712.331,574.503z"/>
</g>
<polygon fill="#FEDFAA" points="580.143,534.695 523.496,527.277 467.303,521.476 460.707,553.553 435.091,589.297 555.03,594.161 
	574.341,559.354 "/>
<polygon fill="#FEDFAA" points="350.484,606.787 362.769,587.336 435.091,589.297 457.089,558.651 379.149,534.695 384.268,512.945 
	252.547,501.684 203.408,529.805 129.698,555.6 127.31,568.568 "/>
<polyline fill="none" stroke="#8F4A1C" stroke-miterlimit="10" points="198.897,496.776 132.06,525.227 139.737,532.001 
	202.51,546.904 344.315,560.452 346.121,603.807 "/>
<polyline fill="#8F4A1C" stroke="#8F4B21" stroke-miterlimit="10" points="339.71,559.689 339.71,602.689 346.121,602.439 
	344.315,560.452 339.71,559.689 "/>
<polygon fill="#8F4A1C" stroke="#8F4B21" stroke-miterlimit="10" points="349.71,598.689 349.71,606.689 128.71,569.189 
	128.71,556.689 "/>
<polygon fill="#8F4A1C" stroke="#8F4B21" stroke-miterlimit="10" points="362.71,580.689 362.71,588.689 555.03,594.161 
	556.036,588.229 "/>
<polygon fill="#8F4A1C" stroke="#8F4B21" stroke-miterlimit="10" points="349.71,598.689 362.71,580.689 362.71,588.689 
	349.71,606.689 "/>
<polygon fill="#8F4A1C" stroke="#8F4B21" stroke-miterlimit="10" points="322.267,558.346 318.96,600.189 326.71,602.439 
	329.027,558.992 "/>
<polygon fill="#8F4A1C" stroke="#8F4B21" stroke-miterlimit="10" points="308.71,557.189 308.71,597.189 302.21,597.189 
	304.925,557.189 "/>
<polygon fill="#8F4A1C" stroke="#8F4B21" stroke-miterlimit="10" points="291.71,555.586 291.71,594.189 286.71,594.189 
	286.71,554.689 "/>
<polygon fill="#8F4A1C" stroke="#8F4B21" stroke-miterlimit="10" points="275.71,554.189 275.71,592.689 269.21,592.189 
	270.96,554.189 "/>
<polygon fill="#8F4A1C" stroke="#8F4B21" stroke-miterlimit="10" points="257.71,552.663 257.71,590.189 255.21,590.189 
	253.247,552.17 "/>
<polygon fill="#8F4A1C" stroke="#8F4B21" stroke-miterlimit="10" points="241.71,550.189 241.71,587.689 237.71,586.439 
	237.71,550.189 "/>
<rect x="216.71" y="548.189" fill="#8F4A1C" stroke="#8F4B21" stroke-miterlimit="10" width="6" height="38"/>
<polygon fill="#8F4A1C" stroke="#8F4B21" stroke-miterlimit="10" points="203.71,547.189 203.71,581.689 199.71,580.439 
	199.71,547.189 "/>
<polygon fill="#8F4A1C" stroke="#8F4B21" stroke-miterlimit="10" points="186.846,543.754 188.96,581.189 182.71,581.189 
	182.71,542.689 "/>
<polygon fill="#8F4A1C" stroke="#8F4B21" stroke-miterlimit="10" points="166.71,538.689 166.71,575.689 162.71,575.939 
	162.71,537.689 "/>
<polygon fill="#8F4A1C" stroke="#8F4B21" stroke-miterlimit="10" points="153.71,535.689 153.71,575.189 148.71,575.189 
	148.71,534.689 "/>
<polygon fill="#8F4A1C" stroke="#8F4B21" stroke-miterlimit="10" points="142.4,533.125 141.71,564.189 138.21,564.189 
	139.737,532.564 "/>
<polygon fill="#8F4A1C" stroke="#8F4B21" stroke-miterlimit="10" points="148.71,517.689 148.71,532.689 153.71,535.689 
	153.71,515.689 "/>
<polygon fill="#8F4A1C" stroke="#8F4B21" stroke-miterlimit="10" points="162.71,511.689 162.71,537.689 168.71,538.995 
	168.71,509.689 "/>
<polygon fill="#8F4A1C" stroke="#8F4B21" stroke-miterlimit="10" points="180.71,504.689 180.71,538.689 185.71,537.689 
	185.71,502.689 "/>
<polygon fill="#8F4A1C" stroke="#8F4B21" stroke-miterlimit="10" points="196.71,497.689 196.71,530.689 203.71,525.689 
	203.71,493.689 "/>
<path fill="none" stroke="#8F4B21" stroke-miterlimit="10" d="M483.71,551.689"/>
<polyline fill="none" stroke="#8F4B21" stroke-miterlimit="10" points="461.21,486.189 484.783,486.189 537.21,495.189 
	575.317,495.189 583.8,500.378 573.904,532.455 556.153,552.234 479.469,551.91 "/>
<polygon fill="#8F4B21" stroke="#8F4B21" stroke-miterlimit="10" points="494.71,552.189 494.71,551.974 494.71,591.189 
	497.71,591.189 497.71,552.189 "/>
<rect x="510.71" y="552.189" fill="#8F4B21" stroke="#8F4B21" stroke-miterlimit="10" width="5" height="39"/>
<polygon fill="#8F4B21" stroke="#8F4B21" stroke-miterlimit="10" points="528.602,552.439 527.975,591.189 531.71,591.189 
	531.71,552.689 "/>
<polygon fill="#8F4B21" stroke="#8F4B21" stroke-miterlimit="10" points="541.717,552.392 541.573,591.189 544.71,591.189 
	544.71,552.689 "/>
<polygon fill="#8F4B21" stroke="#8F4B21" stroke-miterlimit="10" points="551.71,552.689 551.71,592.189 556.21,592.189 
	556.153,552.234 "/>
<polygon fill="#8F4B21" stroke="#8F4B21" stroke-miterlimit="10" points="564.71,542.689 564.71,574.689 567.71,570.606 
	567.71,539.689 "/>
<polygon fill="#8F4B21" stroke="#8F4B21" stroke-miterlimit="10" points="572.71,533.689 572.71,560.689 574.71,556.733 
	574.71,528.689 573.904,532.455 "/>
<polygon fill="#8F4B21" stroke="#8F4B21" stroke-miterlimit="10" points="579.954,512.844 577.864,534.131 579.334,539.689 
	583.8,500.378 "/>
<polygon fill="#8F4B21" stroke="#8F4B21" stroke-miterlimit="10" points="575.317,495.189 574.71,529.843 569.509,537.352 
	570.789,495.189 "/>
<polygon fill="#8F4B21" stroke="#8F4B21" stroke-miterlimit="10" points="553.96,495.189 552.782,529.905 558.662,530.824 
	560.04,495.189 "/>
<polygon fill="#8F4B21" stroke="#8F4B21" stroke-miterlimit="10" points="541.71,495.689 541.71,529.189 534.71,524.689 
	534.71,494.689 "/>
<polygon fill="#8F4B21" stroke="#8F4B21" stroke-miterlimit="10" points="527.441,493.512 526.597,528.689 521.911,527.7 
	523.586,492.85 "/>
<polygon fill="#8F4B21" stroke="#8F4B21" stroke-miterlimit="10" points="508.661,490.648 506.204,526.189 513.21,526.189 
	515.71,491.498 "/>
<polygon fill="#8F4B21" stroke="#8F4B21" stroke-miterlimit="10" points="487.849,487.366 486.688,524.189 480.71,524.189 
	480.71,486.689 484.783,486.189 "/>
<polygon fill="#8F4B21" stroke="#8F4B21" stroke-miterlimit="10" points="494.46,487.893 493.531,524.189 497.21,524.189 
	500.121,488.822 "/>
<polygon fill="#8F4B21" stroke="#8F4B21" stroke-miterlimit="10" points="472.71,487.189 472.71,524.689 468.71,524.189 
	468.71,487.189 "/>
<polygon fill="#8F4C21" stroke="#8F4B21" stroke-miterlimit="10" points="479.21,591.189 484.21,591.189 484.28,552.189 
	478.21,552.189 "/>
<polygon fill="#9FA1A4" points="207.21,345.826 211.659,340.723 224.21,355.91 219.71,364.552 "/>
<polygon fill="#FFFFFF" points="191.963,337.799 182.727,332.816 183.631,331.471 192.569,336.134 "/>
<circle fill="#FFFFFF" cx="181.85" cy="331.647" r="2.625"/>
<path fill="#9FA1A4" d="M202.249,314.427c11.551,5.964,16.181,20.289,10.18,31.913s-20.362,16.144-31.913,10.18L202.249,314.427z"/>
<polyline fill="#8F4A1C" stroke="#8F4B21" stroke-miterlimit="10" points="556.051,593.622 575.317,557.189 580.143,534.939 
	577.864,534.131 573.71,554.235 556.036,587.425 556.411,592.941 "/>
<g id="Tree">
	<polygon fill="#8F4A1C" points="457.089,713.325 488.496,702.658 512.408,675.992 529.21,650.51 529.21,630.493 552.165,612.585 
		602.997,620.881 642.042,616.14 653.293,595.4 675.21,591.844 675.21,585.689 652.678,585.689 636.051,598.651 607.014,602.358 
		579.755,596.509 597.532,570.654 623.014,553.689 672.321,553.689 688.199,546.662 695.902,540.689 719.21,540.689 
		724.613,536.767 698.101,536.689 735.013,507.445 742.717,481.678 730.865,505.689 723.428,506.729 723.23,487.561 721.384,481.7 
		719.21,509.101 680.545,538.545 638.421,539.709 655.606,519.555 665.088,501.774 667.458,489.328 662.76,494.082 657.384,503.549 
		648.495,514.808 646.717,504.141 652.051,489.919 646.16,493.884 640.791,504.733 641.384,518.363 623.606,535.548 
		599.903,543.844 580.94,566.363 556.051,593.622 524.644,610.214 505.088,646.955 488.496,667.103 462.422,676.584 	"/>
	<polygon fill="#8F4A1C" points="560.04,532.063 571.215,497.26 581.178,485.909 610.768,470.783 635.436,453.689 655.134,453.689 
		678.254,443.169 690.066,421.705 697.994,413.68 719.21,404.67 719.21,400.923 703.21,407.131 696.354,407.527 699.21,400.923 
		706.63,391.52 719.21,386.46 719.21,382.508 701.506,389.905 683.728,409.592 668.441,426.325 650.216,435.677 631.506,434.2 
		606.402,448.473 579.823,462.746 550.292,493.752 529.843,528.108 	"/>
	<polygon fill="#8F4A1C" points="471.38,470.956 488.688,465.128 505.463,447.449 520.741,420.554 550.291,391.689 564.288,391.689 
		577.853,396.689 594.979,396.689 604.43,395.044 625.28,385.338 656.999,382.439 669.21,375.632 669.21,372.687 654.917,377.109 
		629.673,377.601 635.508,372.687 650.729,369.726 651.18,366.018 645.127,367.277 646.633,361.736 640.838,366.773 
		633.785,368.285 621.696,378.862 614.895,384.403 601.547,388.181 585.428,387.426 576.361,381.381 588.45,379.87 604.065,373.825 
		624.214,361.736 647.888,344.862 676.096,346.121 704.304,347.129 726.971,341.676 747.371,331.689 720.576,333.805 
		747.371,312.995 766.512,295.18 768.188,285.412 766.512,281.189 761.223,293.921 754.399,280.469 749.662,277.689 757.001,296.34 
		745.293,307.007 731.001,317.096 709.593,330.853 694.733,334.835 674.095,332.807 698.763,323.97 714.378,309.608 724.2,288.197 
		717.714,291.917 706.822,305.573 690.704,317.41 674.837,322.447 672.066,320.936 674.852,306.328 673.074,301.313 
		667.533,318.921 653.177,326.476 640.332,332.017 628.999,331.262 628.243,318.921 631.769,311.617 646.881,304.313 
		658.466,294.491 674.837,287.691 683.652,275.853 686.17,263.261 691.749,248.333 692.467,243.616 684.155,260.238 681.533,245.68 
		679.874,243.616 679.37,262.757 677.103,274.846 667.281,283.913 656.703,287.187 647.384,296.254 635.043,296.757 633.28,289.957 
		639.073,273.839 653.933,252.683 665.77,239.083 670.303,228.505 671.059,214.653 670.051,204.83 668.54,203.319 667.785,215.408 
		662.999,228.756 656.199,239.838 654.436,207.097 650.155,202.312 647.888,246.638 634.54,267.039 628.243,280.387 621.213,298.52 
		615.147,322.95 612.88,340.077 607.088,349.143 592.732,358.21 573.843,362.492 550.924,365.766 528.509,378.107 514.153,392.211 
		494.76,421.93 480.656,436.286 	"/>
	<polygon fill="#8F4A1C" points="474.247,340.723 480.895,324.884 495.16,307.358 500.958,279.115 510.528,254.053 526.521,237.52 
		549.461,222.582 578.275,225.787 599.905,216.181 614.563,202.375 621.213,181.652 640.034,180.071 661.527,167.761 
		655.448,167.029 640.034,172.76 625.015,171.969 631.106,152.989 654.055,126.414 668.465,95.514 660.993,88.069 644.982,122.773 
		621.213,151.066 611.893,180.956 599.903,202.31 579.872,214.501 561.726,211.379 564.929,202.311 570.469,189.162 
		583.074,174.021 591.08,162.814 596.416,147.87 593.199,151.022 587.983,162.39 578.588,171.144 562.359,182.461 542.609,212.875 
		525.419,216.199 535.668,190.149 550.188,162.176 564.922,144.88 579.442,144.026 588.394,136.98 590.828,119.799 595.21,112.426 
		595.768,103.594 602.882,101.42 615.984,100.466 622.803,85.306 631.977,61.39 633.895,38.329 628.982,32.564 626.206,58.828 
		620.653,72.494 613.607,62.244 614.247,39.183 606.774,33.418 606.133,67.156 606.56,76.124 613.393,85.733 606.133,93.206 
		596.951,95.341 591.826,98.971 593.001,105.175 588.196,112.424 584.78,118.83 581.678,128.753 576.879,132.282 564.922,133.777 
		557.448,133.99 550.188,141.891 537.59,157.692 542.288,141.677 552.751,118.83 559.156,102.601 559.797,92.138 556.808,80.181 
		554.032,74.416 549.548,75.27 551.683,86.373 553.391,95.128 552.751,103.242 546.985,113.278 542.288,113.064 541.434,98.117 
		540.793,69.077 535.153,68.65 534.21,85.946 534.21,106.287 534.907,116.054 534.327,142.318 521.652,178.618 502.182,224.954 
		484.227,267.019 472.473,299.689 	"/>
	<polygon fill="#8F4A1C" points="452.098,362.138 474.343,340.759 472.512,299.707 465.756,301.235 463.088,289.707 
		459.286,283.713 456.978,276.107 458.59,251.217 453.749,227.019 451.905,199.134 455.592,169.635 454.44,125.387 450.061,109.025 
		446.568,92.33 457.436,74.226 466.885,59.707 474.247,42.193 477.025,22.834 468.267,19.838 463.543,40.579 461.584,51.641 
		452.827,60.399 447.526,71.691 444.292,82.062 442.21,88.514 442.21,76.824 444.26,55.098 441.63,49.337 435,46.341 433.21,58.094 
		447.617,81.856 442.418,109.325 442.526,125.387 441.233,132.051 427.724,117.091 420.893,96.811 418.21,96.58 418.21,108.743 
		421.721,124.005 431.887,137.375 440.047,152.683 442.226,163.182 441.996,172.631 439.23,178.392 438.999,200.055 
		441.534,230.245 445.913,252.369 444.991,261.587 440.613,276.797 438.077,296.156 435.542,318.279 430.012,342.477 	"/>
	<polygon fill="#8F4A1C" points="458.083,251.678 472.21,225.599 480.988,191.103 494.821,178.162 502.21,158.462 502.21,135.751 
		500.102,122.554 498.741,137.285 496.22,158.155 489.434,167.67 482.052,173.808 482.657,150.483 483.267,127.771 485.413,114.574 
		497.955,92.169 502.21,73.141 502.21,53.689 496.767,53.689 496.46,72.008 489.401,85.432 486.639,73.689 479.58,73.689 
		485.411,89.681 477.025,104.583 471.38,117.098 469.452,129.647 468.838,159.4 467.61,180.569 465.769,202.316 460.858,216.471 
		453.439,222.325 450.423,233.043 	"/>
	<polygon fill="#8F4A1C" points="430.06,342.656 420.723,332.315 405.471,324.404 392.683,300.293 381.216,285.042 372.21,269.79 
		372.21,254.833 374.439,243.703 374.044,226.906 372.858,220.582 382.789,206.44 381.363,203.998 371.489,214.852 369.769,200.689 
		367.21,200.689 367.21,216.776 367.21,237.646 364.042,248.056 358.805,235.834 355.76,220.769 353.811,237.823 356.456,248.446 
		363.768,259.513 364.643,274.206 366.638,291.261 375.168,311.442 391.955,334.466 408.994,353.795 423.775,366.586 430.06,389.61 
		434.577,413.202 436.283,432.246 480.656,436.286 484.328,432.548 480.625,406.38 478.351,375.682 474.656,351.237 
		474.343,340.759 	"/>
	<polygon fill="#8F4A1C" points="398.291,439.55 406.822,443.949 414.787,441.206 418.21,436.286 418.21,424.248 416.919,397.948 
		411.643,384.627 410.341,372.139 405.535,358.264 402.482,346.407 400.54,329.403 403.592,313.585 404.147,291.662 
		400.539,266.131 395.822,237.825 387.497,202.312 385.554,188.706 380.004,174.83 376.674,149.577 364.463,140.142 
		351.143,129.874 343.179,117.941 340.21,103.788 340.21,82.962 337.21,66.879 337.21,49.815 338.396,40.793 341.439,42.459 
		341.712,51.061 343.375,66.324 346.981,69.377 349.756,81.865 350.033,95.463 351.143,106.286 355.583,114.611 360.578,123.769 
		369.458,130.151 365.585,118.496 364.21,101.29 364.21,89.1 365.033,71.042 358.65,59.109 354.21,50.229 354.21,36.311 
		354.398,28.861 357.888,22.478 362.21,16.65 362.21,8.075 367.21,4.995 367.21,16.669 364.136,26.363 363.19,36.908 
		365.492,50.229 373.025,66.602 375.821,85.472 378.884,110.448 383.884,119.606 383.609,94.075 382.699,66.602 381.21,47.176 
		381.21,30.173 386.03,36.076 386.625,55.501 394.692,71.875 398.309,72.707 402.477,65.492 409.14,47.176 412.749,41.071 
		414.692,19.838 412.75,2.775 420.242,0 424.128,21.923 427.735,12.765 432.453,13.32 430.233,28.306 420.798,47.176 
		410.807,68.544 399.152,96.018 399.429,126.821 401.372,162.62 404.98,180.381 415.247,212.017 421.63,232.83 423.018,258.083 
		426.625,292.494 424.96,324.13 419.09,348.828 435.783,389.345 443.276,438.741 422.185,475.65 400.817,451.507 	"/>
	<polygon fill="#8F4A1C" points="400.491,438.269 398.949,422.871 396.21,399.063 396.21,380.053 388.287,362.138 370.523,338.386 
		368.642,329.984 357.434,318.551 342.494,305.713 334.402,291.4 337.173,284.554 342.491,266.506 341.576,254.371 337.21,237.825 
		337.21,226.597 337.21,218.003 334.882,221.175 330.676,237.825 333.472,256.238 330.669,266.195 325.378,272.73 315.56,259.038 
		313.21,237.825 313.21,213.093 317.581,189.648 332.102,176.539 339.424,167.16 340.892,149.255 333.777,164.454 323.847,172.751 
		317.602,174.401 317.723,165.843 317.526,155.024 316.21,147.33 316.21,135.751 318.173,114.657 316.33,113.101 312.648,125.859 
		310.21,144.529 310.21,160.304 307.663,175.024 303.503,197.116 301.21,213.297 301.21,231.507 302.792,246.592 297.281,253.437 
		289.859,240.991 280.857,222.632 274.645,211.741 269.983,196.494 271.853,179.069 280.878,161.021 284.924,144.218 
		285.236,126.482 278.701,111.546 273.412,102.211 272.167,87.897 277.768,73.895 283.369,64.033 285.547,53.689 283.156,53.689 
		278.079,64.344 272.167,74.22 269.989,47.689 265.969,47.689 263.21,77.317 263.21,105.06 270.771,116.524 273.647,130.216 
		273.457,142.574 267.481,158.532 259.711,171.912 257.561,181.177 255.001,190.03 246.028,186.643 237.627,179.691 
		232.353,169.202 228.21,160.71 225.832,147.267 228.21,132.068 231.678,123.992 233.21,115.28 233.21,106.287 232.156,99.049 
		235.551,87.586 232.855,81.674 230.418,97.543 229.2,114.346 225.832,126.715 220.299,139.363 219.21,150.483 221.287,166.041 
		226.372,176.891 216.939,169.795 212.21,157.909 208.64,145.489 202.711,135.763 192.633,122.96 188.088,104.276 185.21,102.211 
		185.21,117.336 191.708,134.883 200.977,148.574 204.677,163.199 210.884,179.069 226.123,194.627 245.1,206.14 261.901,217.342 
		267.19,225.432 274.346,237.825 280.258,255.616 291.46,275.219 307.329,293.267 328.799,314.426 352.137,338.697 366.907,362.138 
		374.21,384.438 374.21,398.468 377.445,426.446 378.327,456.157 379.234,470.956 382.955,495.836 379.215,512.639 373.299,536.598 
		390.226,549.045 419.091,559.002 440.82,560.869 461.356,558.069 466.495,554.024 468.21,525.708 468.21,489.314 475.693,469.656 
		484.554,436.286 477.138,427.69 432.474,434.847 423.111,465.964 402.249,448.227 	"/>
	<path fill="#8F4A1C" d="M366.402,587.636l132.206,3.198l-7.881,6.525l-6.352,13.995l-5.699,15.002l-7.284,13.791l-8.309,5.398
		l-0.657,31.036l-5.335,36.742l-10.188,46.648l-3.626,33.409c0,0,3.934,43.309,21.934,62.309c15,24,51,43,51,43l-319-9
		c0,0,33.487-9,53.243-26c19.757-17,30.247-42.451,30.247-42.451l11.043-31.682l4.793-21.082l-2.396-23.421l-13.44-22.793
		l-12.32-18.585L256.4,676.111l-7.788-26.362l-7.788-20.37l-17.972-13.18l-17.972-8.387l-23.963-14.378l-25.161-9.575l-17.971-13.17
		l-14.009-1.867l-15.915,3.316l-9.947,6.41l-12.6,3.095l-27.104,2.046v-4.478l20.251-3.758l15.031-7.737l-20.336-13.481
		l-14.147-5.308l-14.088,8.561l-3.59-2.995l13.257-8.218l-18.046-4.961l1.748-3.205l18.95,3.524l17.642,6.87l16.774,8.387
		l14.378,3.98l16.774-4.579l11.382-0.599l-7.189-14.378l-23.363-8.986l-19.17-2.523l-15.576-12.453l-14.526-17.275l-12.432-4.89
		l-17.972-5.392L8.389,479.129l-9.982-10.893L0,462.837l15.576,12.813l16.023,8.29l16.136,3.316l9.775,3.737l11.382,9.585
		l19.769,14.378l15.576,2.396l5.392-2.995l-2.995-19.769l-8.986-12.991l-14.378-10.64l-13.778-8.119L58.709,449.06l-10.184-16.175
		l-4.193-13.778l-8.986-14.787l-2.997-22.631h2.822l4.367,20.233l10.184,11.054l-3.594-27.287h3.775l4.013,28.971l6.59,17.498
		l14.861,17.298l3.111-27.987l4.456,1.866l0.833,16.174l-2.21,15.694l22.682,15.75l12.58,20.038l11.382,26.359l15.576,23.963
		l31.8,22.107l21.519,4.402l-21.03-31.625l-20.906-26.035l-13.778-19.769l-4.193-14.744l0.599-24.196l-8.387-20.967l-9.585-16.175
		l-8.986-17.782l-5.994-14.84h6.449l3.735,9.449l8.387,15.78l10.184,14.48l8.387,14.836l7.189,19.897l1.198,14.812l5.392,15.251
		l8.387,13.183l17.972,20.969l17.424,15.852l12.716,14.997l15.469,29.833l20.382,18.775l13.566,9.821l19.029,16.573l15.346,30.691
		l10.435,20.256l9.412,2.865l15.959-7.366l14.323-16.369l14.732-23.325l4.911-24.962L366.402,587.636z"/>
	<path fill="#FD5D0A" d="M316.353,113.101c0,0-0.602-14.979,3.508-17.651C319.861,95.451,327.848,109.994,316.353,113.101z"/>
	<path fill="#FD5D0A" d="M283.21,121.851c0,0,11.121-3.37,6.848-12.835C290.058,109.016,279.851,112.243,283.21,121.851"/>
	<path fill="#FD5D0A" d="M314.517,115.387c0,0-2.466-12.126-11.099-12.743C303.419,102.644,306.091,114.565,314.517,115.387z"/>
	<path fill="#FD5D0A" d="M316.739,130.948c0,0,2.917-11.245,9.905-11.45C326.644,119.498,327.593,129.244,316.739,130.948z"/>
	<path fill="#FD5D0A" d="M310.423,142.574c0,0-1.455-12.183-16.459-13.622C293.964,128.952,296.875,140.164,310.423,142.574z"/>
	<path d="M356.079,720.308c0,0-12.34,38.299-12.34,55.32c0,17.022,15.273,28.724,29.977,30.852s29.79-15.643,33.853-25.532
		c8.142-19.816,13.747-53.192,13.747-53.192s5.001-27.15-22.99-30.064S361.217,702.869,356.079,720.308z"/>
	<path fill="#FD5D0A" d="M336.94,157.641c0,0-7.69-4.551-6.788-16.275C330.151,141.366,338.678,147.402,336.94,157.641z"/>
	<path fill="#FD5D0A" d="M340.37,155.024c0,0,0.964-8.718,7.998-12.45C348.369,142.574,348.606,152.448,340.37,155.024z"/>
	<path fill="#FD5D0A" d="M339.35,167.16c0,0,4.149-7.395,12.626-8.297C351.976,158.862,348.549,169.504,339.35,167.16z"/>
	<path fill="#FD5D0A" d="M316.21,145.62c0,0,1.374-4.366,7.487-5.676C323.697,139.944,322.21,145.62,316.21,145.62z"/>
	<path fill="#FD5D0A" d="M337.173,233.68c0,0,2.612-11.404,8.49-11.404C345.663,222.275,343.295,231.021,337.173,233.68z"/>
	<path fill="#FD5D0A" d="M333.625,226.15c0,0-5.108-8.151-13.672-5.775C319.953,220.375,324.672,228.876,333.625,226.15"/>
	<path fill="#FD5D0A" d="M334.882,221.175c0,0-4.531-20.282-13.18-22.421c0,0,1.329,18.945,13.683,22.421"/>
	<path fill="#FD5D0A" d="M337.173,216.336c0,0-6.778-19.957,5.814-30.886C342.988,185.45,348.94,203.744,337.173,216.336z"/>
	<path fill="#FD5D0A" d="M339.35,221.175c0,0,1.657-13.155,12.626-15.055C351.976,206.12,349.046,220.226,339.35,221.175z"/>
	<path fill="#FD5D0A" d="M355.76,220.769c0,0-0.893-10.372,8.135-13.223C363.895,207.545,364.73,219.974,355.76,220.769"/>
	<path fill="#FD5D0A" d="M369.769,200.689c0,0,2.482-14.289-5.854-18.565C363.916,182.124,361.389,198.584,369.769,200.689z"/>
	<path fill="#FD5D0A" d="M370.292,204.992c0,0,2.631-7.663,8.333-8.138C378.625,196.854,377.639,205.052,370.292,204.992z"/>
	<path fill="#FD5D0A" d="M374.459,242.233c0,0,5.117-14.255,11.294-14.255C385.753,227.977,386.847,241.009,374.459,242.233z"/>
	<path fill="#FD5D0A" d="M273.498,139.944c0,0,1.563-16.192-9.16-20.446C264.338,119.498,263.303,139.273,273.498,139.944z"/>
	<path fill="#FD5D0A" d="M725.178,515.237c0,0,11.077-3.222,16.791,3.84C741.969,519.077,732.229,523.69,725.178,515.237z"/>
	<path fill="#FD5D0A" d="M740.023,490.689c0,0,7.398-7.968,20.475-2.998C760.498,487.691,753.549,496.826,740.023,490.689z"/>
	<path fill="#FD5D0A" d="M742.717,481.678c0,0,8.807-4.188,6.625-14.388C749.342,467.29,739.582,474.096,742.717,481.678z"/>
	<path fill="#FD5D0A" d="M738.291,490.645c0,0,3.899-9.228-2.64-16.161C735.651,474.484,731.822,488.974,738.291,490.645z"/>
	<path fill="#FD5D0A" d="M422.295,144.043c0,0,7.159,13.796,17.752,8.641C440.047,152.683,434.377,142.649,422.295,144.043z"/>
	<path fill="#FD5D0A" d="M419.069,113.838c0,0-3.048-6.506-13.735-4.182C405.334,109.656,407.944,116.162,419.069,113.838z"/>
	<path fill="#FD5D0A" d="M768.188,285.412c0,0,10.675-8.377,22.751-2.512C790.939,282.9,783.366,291.171,768.188,285.412z"/>
	<path fill="#FD5D0A" d="M736.985,312.871c0,0,7.804-9.615,0-21.345C736.985,291.526,727.194,304.2,736.985,312.871z"/>
	<path fill="#FD5D0A" d="M679.956,280.816c0,0,16.793-8.294,25.418,0C705.374,280.816,691.8,292.533,679.956,280.816z"/>
	<path fill="#FD5D0A" d="M687.62,259.38c0,0,13.195-14.777,28.412-10.292C716.033,249.088,709.199,262.426,687.62,259.38z"/>
	<path fill="#FD5D0A" d="M692.467,243.616c0,0,17.888-7.638,9.36-22.819C701.827,220.797,686.637,227.676,692.467,243.616z"/>
	<path fill="#FD5D0A" d="M679.874,243.616c0,0,9.447-12.117,0.082-22.819C679.956,220.797,674.04,234.348,679.874,243.616z"/>
	<path fill="#FD5D0A" d="M679.6,254.037c0,0-4.242-11.753-13.903-10.421C665.697,243.616,671.377,255.168,679.6,254.037z"/>
	<path fill="#FD5D0A" d="M671.059,214.653c0,0,8.533-6.276,6.243-16.627C677.302,198.026,669.865,200.918,671.059,214.653z"/>
	<path fill="#FD5D0A" d="M654.436,207.097c0,0-1.16-11.141,7.465-15.282C661.902,191.815,663.187,205.128,654.436,207.097z"/>
	<path fill="#FD5D0A" d="M632.575,202.312c0,0,6.855,12.706,17.056,10.248C649.631,212.559,644.996,200.387,632.575,202.312z"/>
	<path fill="#FD5D0A" d="M648.696,230.833c0,0-9.911-10.036-21.297-7.621C627.4,223.212,636.526,234.658,648.696,230.833z"/>
	<path fill="#FD5D0A" d="M645.548,264.62c0,0,7.861-7.155,16.42-4.788C661.968,259.832,657.486,265.661,645.548,264.62z"/>
	<path fill="#FD5D0A" d="M632.575,271.204c0,0,2.21-15.557-7.175-19.526C625.4,251.678,622.57,268.132,632.575,271.204z"/>
	<path fill="#FD5D0A" d="M453.026,120.104c0,0,1.825-12.555,12.63-13.415C465.657,106.689,463.559,119.762,453.026,120.104z"/>
	<path fill="#FD5D0A" d="M500.102,122.554c0,0-2.976-8.432,2.108-13.399C502.21,109.155,506.6,116.964,500.102,122.554z"/>
	<path fill="#FD5D0A" d="M501.448,130.98c0,0,0.998-12.763,12.405-16.641C513.853,114.34,517.276,129.824,501.448,130.98z"/>
	<path fill="#FD5D0A" d="M502.21,141.262c0,0,9.992-7.9,21.055-3.422C523.265,137.84,512.811,146.396,502.21,141.262z"/>
	<path fill="#FD5D0A" d="M568.442,178.22c0,0-9.571-12.43-1.258-23.196C567.183,155.024,573.692,166.696,568.442,178.22z"/>
	<path fill="#FD5D0A" d="M583.074,174.021c0,0,8.635-7.377,20.328-2.814C603.402,171.207,595.668,179.968,583.074,174.021z"/>
	<path fill="#FD5D0A" d="M582.502,167.497c0,0,4.645-14.257-1.344-17.394C581.158,150.103,575.861,161.506,582.502,167.497z"/>
	<path fill="#FD5D0A" d="M116.111,393.191c0,0,10.556-9.742,5.672-24.346c0,0-12.444,12.584-4.344,26.844"/>
	<path fill="#FD5D0A" d="M104.836,381.689c0,0-3.133-14.521-19.956-12.844C84.88,368.845,86.984,382.737,104.836,381.689z"/>
	<path fill="#FD5D0A" d="M83.6,436.286c0,0,9.716-19.092,21.236-14.208C104.836,422.078,103.485,436.676,83.6,436.286z"/>
	<path fill="#FD5D0A" d="M78.477,421.47c0,0,14.696-11.031,5.123-22.307C83.6,399.163,73.644,412.266,78.477,421.47z"/>
	<path fill="#FD5D0A" d="M51.288,395.689c0,0-1.697-11.028,17.311-19C68.599,376.689,64.745,397.365,51.288,395.689z"/>
	<path fill="#FD5D0A" d="M47.434,364.552c0,0-6.411,16.224-1.306,21.137C46.128,385.689,54.489,379.205,47.434,364.552z"/>
	<path fill="#FD5D0A" d="M46.943,427.687c0,0-5.478-4.306-20.674,3.183C26.269,430.87,46.451,437.639,46.943,427.687z"/>
	<path fill="#FD5D0A" d="M50.263,540.336c0,0-9.931-4.779-6.109-20.002C44.154,520.333,56.349,533.774,50.263,540.336z"/>
	<path fill="#FD5D0A" d="M38.29,538.109c0,0-4.424-9.659-19.076-8.304C19.214,529.805,28.061,541.802,38.29,538.109z"/>
	<path fill="#FD5D0A" d="M44.921,557.489c0,0-20.28-0.28-23.536,10.574C21.385,568.063,39.866,569.97,44.921,557.489z"/>
	<path fill="#FD5D0A" d="M269.671,152.683c0,0-1.308-12.198-11.182-14.667C258.489,138.017,260.915,151.589,269.671,152.683z"/>
	<path fill="#FD5D0A" d="M227.632,120.104c0,0-10.73,1.073-15.287-8.357C212.345,111.747,223.361,111.686,227.632,120.104z"/>
	<path fill="#FD5D0A" d="M203.108,136.415c0,0,8.857-13.464,2.211-21.027C205.319,115.387,195.581,127.596,203.108,136.415z"/>
	<path fill="#FD5D0A" d="M194.181,138.536c0,0-8.991-9.824-19.814-6.406C174.367,132.13,183.565,143.681,194.181,138.536z"/>
	<path fill="#FD5D0A" d="M185.21,115.944c0,0-3.058-6.92-17.3-4.197C167.91,111.747,174.786,118.178,185.21,115.944z"/>
</g>
<polygon fill="#A97C50" points="207.21,529.805 290.142,536.198 293.706,411.802 250.458,324.336 207.21,382.508 "/>
<polygon fill="#A97C50" points="293.664,411.802 369.091,411.972 371.489,529.805 290.058,536.198 "/>
<polygon fill="#FEDFAA" points="244.21,485.689 283.21,485.689 283.21,430.386 244.21,428.899 "/>
<polygon fill="#5E707C" points="251.006,325.001 278.785,412.689 396.1,412.689 351.648,360.642 338.311,331.042 "/>
<polygon fill="#FEDFAA" points="224.21,373.689 224.21,400.923 250.42,402.727 251.006,373.689 "/>
<polygon fill="#5E707C" points="250.353,323.925 191.696,395.689 207.21,395.689 207.21,387.419 252.681,330.211 "/>
<g>
	<polygon fill="#5E707C" points="283.21,430.544 244.21,428.899 244.21,432.842 283.21,432.224 	"/>
	<rect x="263.21" y="430.689" fill="#5E707C" width="3" height="55"/>
	<polygon fill="#5E707C" points="244.21,442.399 283.21,444.499 283.21,447.574 244.21,445.863 	"/>
	<polygon fill="#5E707C" points="244.21,460.714 283.21,461.927 283.21,459.596 244.21,457.265 	"/>
	<polygon fill="#5E707C" points="244.21,478.65 283.21,479.129 283.21,477.037 244.21,475.414 	"/>
	<polygon fill="#5E707C" points="247.932,429.221 249.727,485.689 244.21,485.689 244.21,429.159 	"/>
</g>
<polygon fill="#5E707C" points="313.861,534.695 310.366,427.687 357.21,428.899 357.21,532.281 "/>
<g>
	<polygon fill="#5E707C" points="224.21,373.689 251.237,373.689 250.946,376.689 224.21,376.689 	"/>
	<polygon fill="#5E707C" points="224.21,400.923 227.714,401.066 226.808,373.689 224.21,373.689 	"/>
	<polygon fill="#5E707C" points="224.21,399.163 250.453,401.179 250.415,402.84 224.21,400.923 	"/>
	<polygon fill="#5E707C" points="237.21,376.689 237.21,400.106 239.21,400.293 239.21,376.689 	"/>
	<polygon fill="#5E707C" points="227.204,385.712 250.78,385.261 250.737,387.439 227.294,388.377 	"/>
</g>
<g>
	<path fill="#FEDFAA" d="M323.812,449.9c-1.369,2.123-2.094,4.587-2.093,7.123c0,3.517,1.368,6.82,3.856,9.307
		c2.485,2.486,5.791,3.856,9.306,3.856c3.516,0,6.821-1.37,9.309-3.856c2.485-2.486,3.855-5.79,3.855-9.307
		c0-2.536-0.726-5-2.095-7.123c-1.085-1.686-2.568-3.122-4.288-4.155c-0.322-0.194-0.723-0.2-1.048-0.016
		c-0.327,0.185-0.53,0.531-0.53,0.905v2.153c0,0.324,0.152,0.632,0.41,0.828c2.307,1.756,3.684,4.525,3.684,7.407
		c0,5.125-4.171,9.296-9.297,9.296c-5.127,0-9.296-4.171-9.296-9.296c0-2.882,1.376-5.651,3.682-7.407
		c0.259-0.196,0.41-0.504,0.41-0.828v-2.153c0-0.374-0.201-0.721-0.528-0.905c-0.327-0.185-0.728-0.179-1.049,0.016
		C326.383,446.778,324.898,448.215,323.812,449.9L323.812,449.9z"/>
	<path fill="#FEDFAA" d="M336.098,458.206c0.538,0,0.976-0.436,0.976-0.976v-14.032c0-0.539-0.438-0.977-0.976-0.977h-2.433
		c-0.538,0-0.976,0.438-0.976,0.977v14.032c0,0.539,0.438,0.976,0.976,0.976H336.098L336.098,458.206z"/>
</g>
</svg>
