<?xml version="1.0" encoding="utf-8"?>
<!-- Generator: Adobe Illustrator 17.0.0, SVG Export Plug-In . SVG Version: 6.00 Build 0)  -->
<!DOCTYPE svg PUBLIC "-//W3C//DTD SVG 1.1//EN" "http://www.w3.org/Graphics/SVG/1.1/DTD/svg11.dtd">
<svg version="1.1" id="Layer_1" xmlns="http://www.w3.org/2000/svg" xmlns:xlink="http://www.w3.org/1999/xlink" x="0px" y="0px"
	 width="114.358px" height="232.493px" viewBox="0 0 114.358 232.493" enable-background="new 0 0 114.358 232.493"
	 xml:space="preserve">
<g>
	<path opacity="0.7" fill="#FAB37E" enable-background="new    " d="M55.033,0c0,0,57.895,107.641,59.274,146.549
		c1.379,38.906-24.997,66.591-90.453,45.39C-44.216,169.892,55.033,0,55.033,0"/>
	<path opacity="0.7" fill="#F37658" enable-background="new    " d="M85.543,22.137c0,0,28.269,108.37,21.157,142.417
		c-7.112,34.043-36.422,51.094-89.906,15.578C-38.826,143.194,85.543,22.137,85.543,22.137"/>
	<polygon fill="#432416" points="34.543,157.145 55.45,171.191 55.45,139.347 48.745,134.26 33.44,140.153 32.158,136.828 
		45.405,131.727 34.857,123.725 37.009,120.884 55.45,134.872 55.45,98.984 60.424,98.984 60.424,116.454 71.73,107.59 
		73.931,110.396 60.424,120.982 60.424,156.611 71.303,150.885 72.895,135.044 76.444,135.402 75.086,148.896 86.593,142.841 
		88.254,145.996 60.424,160.638 60.424,186.304 78.976,176.543 80.636,179.699 60.424,190.332 60.424,232.493 55.45,232.493 
		55.45,175.486 32.555,160.103 	"/>
</g>
</svg>
