<?xml version="1.0" encoding="utf-8"?>
<!-- Generator: Adobe Illustrator 17.0.0, SVG Export Plug-In . SVG Version: 6.00 Build 0)  -->
<!DOCTYPE svg PUBLIC "-//W3C//DTD SVG 1.1//EN" "http://www.w3.org/Graphics/SVG/1.1/DTD/svg11.dtd">
<svg version="1.1" id="Layer_1" xmlns="http://www.w3.org/2000/svg" xmlns:xlink="http://www.w3.org/1999/xlink" x="0px" y="0px"
	 width="274.13px" height="186.952px" viewBox="0 0 274.13 186.952" enable-background="new 0 0 274.13 186.952"
	 xml:space="preserve">
<g>
	<path opacity="0.7" fill="#F64D1E" d="M233.969,27.131c0,0,39.193,72.87,40.127,99.21c0.933,26.338-16.922,45.081-61.234,30.728
		C166.779,142.143,233.969,27.131,233.969,27.131"/>
	<path opacity="0.7" fill="#F64D1E" d="M254.623,42.117c0,0,19.137,73.364,14.323,96.413c-4.815,23.046-24.657,34.589-60.864,10.546
		C170.428,124.07,254.623,42.117,254.623,42.117"/>
	<polygon fill="#432416" points="220.097,133.514 234.251,143.023 234.251,121.465 229.712,118.022 219.35,122.011 218.483,119.76 
		227.45,116.307 220.31,110.89 221.767,108.966 234.251,118.436 234.251,94.14 237.618,94.14 237.618,105.967 245.272,99.967 
		246.762,101.866 237.618,109.033 237.618,133.152 244.983,129.276 246.061,118.552 248.463,118.795 247.544,127.929 
		255.334,123.831 256.458,125.967 237.618,135.879 237.618,153.254 250.177,146.646 251.301,148.782 237.618,155.981 
		237.618,184.523 234.251,184.523 234.251,145.931 218.751,135.517 	"/>
</g>
<g>
	<g opacity="0.7">
		<path fill="#5D8B50" d="M139.025,84.598C127.798,78.434,114.449,63.039,112.708,61h-0.202
			c-1.74,2.039-15.091,17.434-26.317,23.597c0,0-4.7,2.816-2.444,2.816c2.11,0,23.622,2.082,28.862-1.192
			c5.239,3.274,26.752,1.192,28.863,1.192C143.725,87.413,139.025,84.598,139.025,84.598z"/>
		<path fill="#5D8B50" d="M148.462,102.357c-15.238-6.162-33.357-21.557-35.718-23.595h-0.275
			c-2.362,2.037-20.481,17.432-35.718,23.595c0,0-6.381,2.817-3.317,2.817c2.864,0,32.061,2.083,39.172-1.192
			c7.111,3.275,36.309,1.192,39.173,1.192C154.843,105.174,148.462,102.357,148.462,102.357z"/>
		<path fill="#5D8B50" d="M155.203,123.13c-18.103-7.741-39.628-27.078-42.433-29.641h-0.326
			c-2.805,2.563-24.331,21.9-42.434,29.641c0,0-7.579,3.535-3.941,3.535c3.403,0,38.089,2.617,46.537-1.495
			c8.448,4.112,43.135,1.495,46.538,1.495C162.783,126.665,155.203,123.13,155.203,123.13z"/>
		<path fill="#5D8B50" d="M163.293,143.055c-21.54-7.74-47.154-27.078-50.492-29.638h-0.387
			c-3.338,2.56-28.952,21.898-50.492,29.638c0,0-9.019,3.538-4.69,3.538c4.048,0,39.3,4.065,55.469-4.166
			c14.478,10.18,51.232,4.166,55.28,4.166C172.312,146.593,163.293,143.055,163.293,143.055z"/>
		<path fill="#5D8B50" d="M134.306,66.836c-9.223-6.162-20.188-21.559-21.617-23.597h-0.166
			c-1.429,2.039-12.395,17.435-21.617,23.597c0,0-3.86,2.817-2.007,2.817c1.733,0,19.403,2.082,23.706-1.192
			c4.304,3.274,21.974,1.192,23.707,1.192C138.167,69.653,134.306,66.836,134.306,66.836z"/>
		<path fill="#5D8B50" d="M127.566,46.908c-6.357-6.161-13.916-21.557-14.902-23.595h-0.115
			c-0.985,2.037-8.544,17.433-14.901,23.595c0,0-2.661,2.817-1.384,2.817c1.195,0,13.376,2.083,16.342-1.192
			c2.967,3.275,15.147,1.192,16.343,1.192C130.227,49.725,127.566,46.908,127.566,46.908z"/>
	</g>
	<path fill="#432416" d="M113.091,141.798h-0.926c-1.633,1-3.874,2.345-5.874,2.91v23.09h12v-22.292
		C117.292,144.757,114.802,143.798,113.091,141.798z"/>
</g>
<g>
	<rect x="15.697" y="143.944" fill="#432416" width="11.573" height="43.008"/>
	<polygon opacity="0.7" fill="#F6921E" points="21.292,143.798 42.292,143.798 21.483,0 0,144.316 	"/>
</g>
</svg>
