<?xml version="1.0" encoding="utf-8"?>
<!-- Generator: Adobe Illustrator 17.0.0, SVG Export Plug-In . SVG Version: 6.00 Build 0)  -->
<!DOCTYPE svg PUBLIC "-//W3C//DTD SVG 1.1//EN" "http://www.w3.org/Graphics/SVG/1.1/DTD/svg11.dtd">
<svg version="1.1" id="Layer_1" xmlns="http://www.w3.org/2000/svg" xmlns:xlink="http://www.w3.org/1999/xlink" x="0px" y="0px"
	 width="436.008px" height="143.24px" viewBox="0 0 436.008 143.24" enable-background="new 0 0 436.008 143.24"
	 xml:space="preserve">
<g>
	<rect x="-25.532" y="-39.338" fill="none" width="484.527" height="216.947"/>
	<g>
		<path id="Wordmark" fill="#59595C" d="M103.823,101.107h4.459v24.947L87.915,98.202H77.744v2.906h4.204l1.392,1.975v31.53h-4.446
			v2.93H91.46v-2.93h-4.425v-26.516l21.868,30.1h3.056v-37.089h4.386v-2.906h-12.522V101.107z M56.396,134.158h-5.042v-15.322h5.042
			c5.245,0,8.632,3.126,8.632,7.968C65.028,132.223,60.389,134.158,56.396,134.158 M51.354,101.636h4.826
			c2.56,0,6.848,0.882,6.848,6.742c0,4.871-3.601,7.056-7.167,7.056h-4.506V101.636z M62.674,116.771
			c3.735-1.063,7.22-3.972,7.22-8.625c0-6.045-4.485-9.945-11.446-9.945H40.39v2.906h4.38v33.491h-4.38v2.943h19.093
			c7.367,0,12.286-4.19,12.286-10.438C71.769,120.926,67.332,117.785,62.674,116.771 M143.176,101.107h5.035l-8.456,13.947
			l-9.085-13.947h4.564v-2.906h-15.888v2.906h3.545l11.965,18.395v15.096h-4.382v2.943h15.343v-2.943h-4.442v-15.442l11.064-18.049
			h3.188v-2.906h-12.45V101.107z M329.483,134.158h-12.969v-33.051h4.38v-2.906h-15.352v2.906h4.405v33.491h-4.405v2.943h27.369
			v-8.544h-3.428V134.158z M295.766,134.158h-12.937v-33.051h4.393v-2.906h-15.371v2.906h4.395v33.491h-4.395v2.943h27.367v-8.544
			h-3.453V134.158z M202.449,126.481l-13.247-28.28h-10.983v2.906h4.436v33.491h-4.436v2.943h12.565v-2.943h-4.435V107.31
			l14.673,31.349L214.954,108v26.598h-4.378v2.943h15.344v-2.943h-4.399v-33.491h4.399v-2.906h-10.437L202.449,126.481z
			 M356.468,134.491c-7.297,0-12.38-6.842-12.38-16.627c0-9.763,5.129-16.567,12.446-16.567c7.156,0,12.157,6.804,12.157,16.567
			C368.691,127.649,363.671,134.491,356.468,134.491 M356.468,97.489c-10.797,0-19.597,9.168-19.597,20.441
			c0,11.23,8.8,20.368,19.597,20.368c10.724,0,19.435-9.168,19.435-20.433C375.903,106.627,367.192,97.489,356.468,97.489
			 M407.141,98.202v2.906h4.44v24.947l-20.345-27.853h-10.203v2.906h4.222l1.401,1.975v31.516h-4.435v2.943h12.559v-2.943h-4.446
			v-26.502l21.865,30.1h3.071v-37.089h4.386v-2.906H407.141z M258.867,134.158h-13.625v-14.921h10.285v4.483h3.451v-12.294h-3.451
			v4.425h-10.285v-14.216h13.091v4.98h3.391V96.55h-3.445v1.651h-23.992v2.906h4.373v33.491h-4.373v2.943h28.03v-8.544h-3.449
			V134.158z"/>
		<g id="Icon">
			<path fill="#B38634" d="M114.233,39.27L66.066,20.437C55.717,26.102,47.254,32.654,40.39,39.27
				c6.864,6.601,15.327,13.153,25.677,18.829L114.233,39.27z"/>
			<path fill="#A8AAAC" d="M13.808,0c0,0,5.1,16.58,21.835,34.433c7.421-5.7,16.364-10.895,26.99-15.35L13.808,0z"/>
			<path fill="#A89975" d="M13.808,78.53c0,0,5.1-16.569,21.835-34.43c7.421,5.702,16.364,10.884,26.99,15.346L13.808,78.53z"/>
		</g>
	</g>
</g>
</svg>
