<?xml version="1.0" encoding="utf-8"?>
<!-- Generator: Adobe Illustrator 17.0.0, SVG Export Plug-In . SVG Version: 6.00 Build 0)  -->
<!DOCTYPE svg PUBLIC "-//W3C//DTD SVG 1.1//EN" "http://www.w3.org/Graphics/SVG/1.1/DTD/svg11.dtd">
<svg version="1.1" id="Layer_1" xmlns="http://www.w3.org/2000/svg" xmlns:xlink="http://www.w3.org/1999/xlink" x="0px" y="0px"
	 width="436.008px" height="93.107px" viewBox="0 0 436.008 93.107" enable-background="new 0 0 436.008 93.107"
	 xml:space="preserve">
<g>
	<path fill="#F05225" d="M0,0h44.292c-0.003,14.764,0,29.528-0.003,44.292c-14.761,0-29.526,0-44.29,0V0L0,0z"/>
	<path fill="#80BB41" d="M48.815,0h44.292c0,14.764,0.003,29.528-0.003,44.292c-14.761-0.003-29.526,0-44.287,0
		C48.812,29.528,48.815,14.764,48.815,0L48.815,0z"/>
	<path fill="#787878" d="M399.417,16.876c4.083-2.658,9.359-2.905,13.961-1.639c0.04,2.735,0.005,5.472,0.019,8.209
		c-2.187-0.963-4.759-1.591-7.06-0.646c-1.825,0.724-2.91,2.596-3.195,4.469c-0.343,2.376-0.12,4.783-0.178,7.172
		c4.671,0.011,9.343,0.003,14.014,0.005c0.035-3.033-0.037-6.068,0.04-9.101c3.176-0.904,6.318-1.918,9.478-2.87
		c0.027,3.996-0.037,7.994,0.035,11.992c3.158-0.045,6.318-0.011,9.478-0.021v7.778c-3.171-0.13-6.345-0.035-9.516-0.045
		c0.013,4.472,0.003,8.944,0.005,13.418c0.051,2.477-0.133,4.967,0.157,7.435c0.176,1.455,0.705,3.067,2.07,3.82
		c2.285,1.28,5.185,0.721,7.284-0.684v7.856c-2.737,1.189-5.797,1.551-8.757,1.341c-2.809-0.208-5.719-1.229-7.552-3.464
		c-2.118-2.525-2.663-5.943-2.705-9.14c-0.024-6.863,0.003-13.727-0.011-20.593c-4.674-0.003-9.348-0.005-14.019,0.003
		c-0.005,10.771-0.003,21.542-0.003,32.314c-3.192,0-6.387,0-9.579,0c0-10.769-0.013-21.534,0.005-32.303
		c-2.221-0.043-4.445,0.011-6.667-0.035c0.008-2.556,0.019-5.116-0.005-7.675c2.211-0.051,4.424-0.029,6.64-0.013
		c0.162-3.4-0.356-6.898,0.66-10.21C394.873,21.26,396.783,18.563,399.417,16.876L399.417,16.876z"/>
	<path fill="#787878" d="M194.32,17.435c1.931-0.293,4.022,0.367,5.302,1.878c1.5,1.655,1.777,4.288,0.665,6.222
		c-1.229,2.181-3.98,3.195-6.377,2.671c-2.487-0.447-4.56-2.759-4.448-5.336C189.391,20.156,191.66,17.738,194.32,17.435
		L194.32,17.435z"/>
	<path fill="#787878" d="M120.906,18.621c4.645,0,9.287,0,13.932,0c4.336,11.011,8.704,22.011,13.046,33.021
		c1.109,2.753,2.147,5.539,3.309,8.271c5.578-13.759,11.237-27.483,16.773-41.26c4.466-0.072,8.936-0.016,13.405-0.027
		c-0.011,18.619-0.005,37.238-0.003,55.856c-3.224-0.008-6.446,0.027-9.667-0.019c0.035-13.74-0.003-27.48,0.016-41.223
		c0.005-0.617-0.016-1.234-0.059-1.852c-0.189,0.287-0.356,0.585-0.503,0.894c-5.536,14.065-11.178,28.089-16.682,42.167
		c-2.293,0.082-4.589,0.005-6.885,0.043c-5.711-14.065-11.351-28.161-17.033-42.236c-0.149-0.293-0.309-0.577-0.481-0.851
		c-0.117,6.02-0.019,12.045-0.051,18.065c0.003,8.337-0.005,16.674,0.003,25.011c-3.041,0.008-6.081,0-9.119,0.003
		C120.904,55.864,120.901,37.243,120.906,18.621L120.906,18.621z"/>
	<path fill="#787878" d="M220.683,34.41c4.623-1.317,9.609-1.264,14.229,0.043c0.952,0.266,1.875,0.636,2.732,1.139
		c-0.053,3.051,0,6.105-0.029,9.159c-3.089-2.36-7.007-3.855-10.933-3.36c-3.118,0.282-6.092,1.899-7.957,4.419
		c-2.397,3.123-2.95,7.27-2.538,11.09c0.309,2.99,1.546,5.977,3.871,7.959c2.415,2.147,5.802,2.908,8.962,2.668
		c3.123-0.359,6.071-1.681,8.595-3.527c0.027,2.892-0.013,5.783,0.021,8.675c-3.916,2.33-8.611,2.932-13.094,2.711
		c-4.586-0.242-9.159-1.979-12.479-5.203c-3.607-3.477-5.565-8.436-5.797-13.402c-0.234-5.163,0.817-10.55,3.788-14.863
		C212.545,38.238,216.44,35.633,220.683,34.41L220.683,34.41z"/>
	<path fill="#787878" d="M325.322,33.801c4.429-0.779,9.066-0.207,13.258,1.381c0.005,2.937,0,5.871,0.003,8.805
		c-2.929-2.014-6.507-3.096-10.061-2.971c-1.79,0.069-3.759,0.827-4.576,2.53c-0.649,1.684-0.2,3.892,1.389,4.9
		c2.716,1.817,5.956,2.588,8.771,4.216c2.216,1.245,4.365,2.873,5.488,5.219c2.11,4.395,1.216,10.202-2.493,13.479
		c-3.541,3.309-8.64,4.224-13.33,4.049c-3.331-0.215-6.677-0.873-9.739-2.235c0.013-3.089-0.019-6.174,0.016-9.26
		c2.575,1.87,5.547,3.208,8.691,3.751c2.189,0.356,4.57,0.372,6.611-0.607c1.953-0.971,2.304-3.746,1.144-5.443
		c-1.085-1.309-2.679-2.03-4.182-2.737c-2.822-1.269-5.789-2.33-8.268-4.232c-1.742-1.359-3.062-3.275-3.578-5.435
		c-0.766-3.184-0.527-6.773,1.325-9.555C317.905,36.413,321.579,34.468,325.322,33.801L325.322,33.801z"/>
	<path fill="#787878" d="M259.064,35.062c2.644-1.588,6.004-1.721,8.89-0.75c-0.013,3.195,0,6.39-0.008,9.585
		c-1.889-1.224-4.246-1.748-6.475-1.522c-2.719,0.309-4.874,2.397-5.991,4.791c-1.213,2.535-1.442,5.403-1.365,8.175
		c0,6.382,0.003,12.764,0,19.146c-3.15,0-6.297,0-9.444,0c-0.008-13.338,0.011-26.679-0.008-40.018
		c3.152-0.04,6.305-0.024,9.457-0.008c-0.013,2.29,0,4.581-0.008,6.874C255.138,38.842,256.662,36.421,259.064,35.062
		L259.064,35.062z"/>
	<path fill="#787878" d="M190.333,34.46c3.176-0.013,6.355-0.045,9.532,0.016c-0.037,13.336-0.003,26.674-0.016,40.01
		c-3.171,0-6.342,0-9.51,0C190.33,61.145,190.341,47.804,190.333,34.46L190.333,34.46z"/>
	<path fill="#787878" d="M307.664,43.795c-1.663-3.698-4.663-6.786-8.366-8.457c-4.267-1.942-9.117-2.203-13.713-1.617
		c-4.828,0.609-9.529,2.881-12.593,6.73c-2.798,3.437-4.161,7.853-4.421,12.234c-0.386,5.163,0.476,10.643,3.509,14.953
		c2.583,3.719,6.661,6.275,11.066,7.217c3.682,0.774,7.534,0.777,11.215,0.011c4.307-0.886,8.329-3.269,10.997-6.786
		c2.607-3.312,3.916-7.488,4.211-11.657C309.869,52.153,309.438,47.732,307.664,43.795z M298.411,62.172
		c-0.915,2.059-2.591,3.799-4.706,4.623c-2.474,0.95-5.254,1.006-7.808,0.343c-2.599-0.684-4.804-2.562-6.004-4.953
		c-1.543-3.081-1.774-6.643-1.455-10.021c0.29-3.073,1.359-6.233,3.7-8.353c1.697-1.585,4.012-2.36,6.302-2.487
		c2.878-0.189,5.943,0.625,8.013,2.719c2.213,2.176,3.07,5.334,3.307,8.345C299.93,55.683,299.795,59.118,298.411,62.172z"/>
	<path fill="#787878" d="M384.381,44.952c-1.474-3.974-4.424-7.411-8.228-9.313c-4.363-2.203-9.438-2.525-14.219-1.931
		c-3.855,0.495-7.643,1.958-10.585,4.541c-3.591,3.094-5.698,7.643-6.318,12.295c-0.591,4.653-0.391,9.553,1.506,13.908
		c1.82,4.272,5.411,7.741,9.731,9.441c4.264,1.679,9.005,1.867,13.493,1.141c4.589-0.758,8.936-3.171,11.777-6.885
		c3.035-3.836,4.341-8.8,4.333-13.636C385.938,51.276,385.533,47.993,384.381,44.952z M375.741,58.525
		c-0.367,2.107-1.096,4.208-2.477,5.876c-1.391,1.676-3.461,2.697-5.597,3.011c-2.293,0.343-4.709,0.178-6.853-0.745
		c-2.314-0.979-4.107-2.982-5.052-5.286c-1.136-2.745-1.362-5.786-1.136-8.723c0.218-2.844,1.024-5.762,2.902-7.973
		c1.713-2.064,4.341-3.206,6.991-3.355c2.705-0.189,5.594,0.436,7.675,2.264c1.918,1.591,2.979,3.974,3.466,6.374
		C376.209,52.784,376.204,55.697,375.741,58.525z"/>
	<path fill="#35A0DA" d="M0,48.812c14.764,0.005,29.528-0.003,44.292,0.005c0.003,14.764,0,29.526,0,44.29H0V48.812L0,48.812z"/>
	<path fill="#FDB813" d="M48.817,48.817c14.761-0.005,29.526-0.003,44.29-0.003c0,14.764,0,29.528,0,44.292H48.815
		C48.817,78.343,48.812,63.579,48.817,48.817L48.817,48.817z"/>
</g>
</svg>
