<?xml version="1.0" encoding="utf-8"?>
<!-- Generator: Adobe Illustrator 17.0.0, SVG Export Plug-In . SVG Version: 6.00 Build 0)  -->
<!DOCTYPE svg PUBLIC "-//W3C//DTD SVG 1.1//EN" "http://www.w3.org/Graphics/SVG/1.1/DTD/svg11.dtd">
<svg version="1.1" id="Layer_1" xmlns="http://www.w3.org/2000/svg" xmlns:xlink="http://www.w3.org/1999/xlink" x="0px" y="0px"
	 width="415.069px" height="206.624px" viewBox="0 0 415.069 206.624" enable-background="new 0 0 415.069 206.624"
	 xml:space="preserve">
<path fill="#1D3144" d="M399.093,164.611H236.404V64.644c0-3.879,3.145-7.024,7.024-7.024h148.641c3.879,0,7.024,3.145,7.024,7.024
	V164.611z"/>
<polygon fill="#1D3144" points="399.093,164.611 236.404,164.611 220.429,197.006 415.069,197.006 "/>
<rect x="244.86" y="66.407" fill="#FFFFFF" width="145.777" height="90.569"/>
<path fill="#1D3144" d="M412.538,202.797H222.959c-1.398,0-2.531-1.133-2.531-2.531v-3.26h194.64v3.26
	C415.069,201.664,413.936,202.797,412.538,202.797z"/>
<circle fill="#FFFFFF" cx="317.749" cy="62.213" r="1.997"/>
<path fill="#FFFFFF" d="M334.348,192.195l-1.277-7.876c-0.102-0.629-0.645-1.091-1.282-1.091h-28.082
	c-0.637,0-1.18,0.462-1.282,1.091l-1.277,7.876c-0.128,0.79,0.482,1.507,1.282,1.507h30.635
	C333.866,193.701,334.476,192.985,334.348,192.195z"/>
<path fill="#FFFFFF" d="M397.811,178.015l-4.587-9.084c-0.307-0.607-0.929-0.991-1.61-0.991H243.883
	c-0.681,0-1.303,0.383-1.61,0.991l-4.587,9.084c-0.606,1.199,0.266,2.616,1.61,2.616h156.905
	C397.545,180.631,398.417,179.215,397.811,178.015z"/>
<g>
	<path fill="#1D3144" d="M253.39,106.325v-3.013h12.153v3.013h-4.447v15.231h-3.259v-15.231H253.39z"/>
	<path fill="#1D3144" d="M267.91,121.556v-18.244h3.259v7.732H277v-7.732h3.259v18.244H277v-7.577h-5.831v7.577H267.91z"/>
	<path fill="#1D3144" d="M282.055,121.556l5.857-18.244h3.271l5.857,18.244h-3.361l-1.384-4.396h-5.469l-1.384,4.396H282.055z
		 M287.718,114.225h3.686l-1.823-7.072L287.718,114.225z"/>
	<path fill="#1D3144" d="M298.799,121.556v-18.244h3l5.586,11.495v-11.495h3.258v18.244h-2.883l-5.702-11.546v11.546H298.799z"/>
	<path fill="#1D3144" d="M314.341,121.556v-18.244h3.259v6.568l4.034-6.568h3.749l-5.896,9.103l7.176,9.142h-4.034l-5.029-6.594
		v6.594H314.341z"/>
	<path fill="#1D3144" d="M330.672,103.312h3.775l3.607,6.698l3.594-6.698h3.814l-5.767,10.086v8.158h-3.258v-8.158L330.672,103.312z
		"/>
	<path fill="#1D3144" d="M345.268,112.48c0-1.389,0.207-2.671,0.621-3.847c0.413-1.177,0.98-2.168,1.7-2.975
		c0.72-0.806,1.568-1.433,2.547-1.881s2.028-0.672,3.148-0.672s2.172,0.224,3.155,0.672c0.982,0.448,1.833,1.075,2.554,1.881
		c0.719,0.807,1.286,1.798,1.7,2.975c0.413,1.176,0.62,2.458,0.62,3.847c0,1.396-0.207,2.683-0.62,3.859
		c-0.414,1.176-0.981,2.163-1.7,2.961c-0.721,0.797-1.571,1.415-2.554,1.855c-0.983,0.439-2.035,0.659-3.155,0.659
		s-2.17-0.22-3.148-0.659c-0.979-0.44-1.827-1.059-2.547-1.855c-0.72-0.798-1.287-1.785-1.7-2.961
		C345.475,115.162,345.268,113.875,345.268,112.48z M349.878,107.87c-0.9,1.169-1.351,2.705-1.351,4.61
		c0,1.904,0.448,3.435,1.345,4.59s2.034,1.732,3.413,1.732s2.52-0.58,3.42-1.739s1.352-2.688,1.352-4.583
		c0-1.905-0.453-3.441-1.358-4.61c-0.904-1.167-2.042-1.752-3.413-1.752C351.915,106.118,350.779,106.703,349.878,107.87z"/>
	<path fill="#1D3144" d="M363.952,115.57v-12.258h3.258v12.258c0,1.009,0.261,1.8,0.782,2.372c0.521,0.574,1.179,0.86,1.973,0.86
		c0.793,0,1.449-0.284,1.972-0.854c0.521-0.569,0.782-1.362,0.782-2.379v-12.258h3.258v12.258c0,0.991-0.159,1.888-0.479,2.689
		c-0.318,0.802-0.754,1.459-1.306,1.972s-1.189,0.905-1.914,1.177c-0.724,0.271-1.495,0.407-2.313,0.407
		c-0.819,0-1.591-0.136-2.314-0.407c-0.725-0.271-1.362-0.664-1.914-1.177s-0.987-1.17-1.306-1.972
		C364.111,117.457,363.952,116.561,363.952,115.57z"/>
	<path fill="#1D3144" d="M378.989,119.888c0-0.552,0.183-1.013,0.55-1.384c0.366-0.37,0.812-0.556,1.338-0.556
		s0.974,0.186,1.345,0.556c0.37,0.371,0.556,0.832,0.556,1.384c0,0.561-0.186,1.021-0.556,1.384
		c-0.371,0.361-0.819,0.543-1.345,0.543s-0.972-0.182-1.338-0.543C379.172,120.91,378.989,120.449,378.989,119.888z
		 M379.235,103.312h3.258l-0.375,12.865h-2.521L379.235,103.312z"/>
</g>
<path fill="#A97D51" d="M187.999,137.529c11.516,34.788-0.71,62.647-40.774,62.647c-42.156,0-50.064-27.329-40.291-62.647
	c10.16-36.718,40.392-47.104,40.392-47.104S175.845,100.812,187.999,137.529z"/>
<path fill="#FFFFFF" d="M178.911,137.909c8.832,27.358,11.033,55.53-31.619,55.53s-40.283-28.002-31.997-55.53
	c7.328-24.346,22.946-42.106,31.969-42.562C155.858,94.912,169.679,109.309,178.911,137.909z"/>
<path fill="#A97D51" d="M105.094,33.538c0,0-3.046-24.688-0.709-30.284c0.844-2.022,4.825-4.085,8.232-2.914
	c5.5,1.891,14.352,20.616,14.352,20.616L105.094,33.538z"/>
<path fill="#010101" d="M108.478,28.508V13.445c0,0,0.758-4.069,2.937-4.579s10.648,11.422,10.648,11.422L108.478,28.508z"/>
<path fill="#A97D51" d="M189.154,33.538c0,0,3.046-24.688,0.709-30.284c-0.844-2.022-4.825-4.085-8.232-2.914
	c-5.5,1.891-14.352,20.616-14.352,20.616L189.154,33.538z"/>
<path fill="#010101" d="M185.77,28.508V13.445c0,0-0.758-4.069-2.937-4.579c-2.179-0.51-10.648,11.422-10.648,11.422L185.77,28.508z
	"/>
<path fill="#A97D51" d="M200.189,73.696c0,32.216-31.783,51.073-54.171,51.073c-23.672,0-51.557-18.857-51.557-51.073
	c0-41.114,13.031-61.205,52.417-61.205C184.838,12.491,200.189,32.581,200.189,73.696z"/>
<g>
	<path fill="#C3996C" d="M183.058,109.994"/>
	<path fill="#C3996C" d="M111.085,111.063c9.967,8.9,22.985,13.705,34.933,13.705c11.743,0,26.069-5.191,37.04-14.774
		c-3.946-9.239-18.469-16.094-35.784-16.094C129.006,93.9,113.994,101.053,111.085,111.063
		C111.132,110.903,111.033,111.222,111.085,111.063z"/>
	<path fill="#C3996C" d="M110.695,112.507"/>
	<path fill="#C3996C" d="M110.508,113.684"/>
	<path fill="#C3996C" d="M110.602,112.998"/>
</g>
<path fill="#010101" d="M153.061,93.9l-5.806-0.282l-5.806,0.282c-3.107,0-3.204,1.949-3.204,1.949v2.113
	c0-1.132-0.429,7.482,9.011,9.335c0,0,9.011-2.389,9.011-9.64v-1.808C156.265,95.849,156.168,93.9,153.061,93.9z"/>
<path fill="#010101" d="M155.505,113.203c-1.844,0-3.627-0.477-5.183-1.428c-2.327-1.422-3.715-3.7-3.715-6.092
	c0-0.449,0.364-0.814,0.814-0.814s0.814,0.364,0.814,0.814c0,1.821,1.098,3.579,2.937,4.704c2.573,1.573,5.919,1.585,8.952,0.031
	c0.399-0.205,0.89-0.046,1.095,0.354c0.205,0.4,0.046,0.89-0.354,1.095C159.123,112.757,157.286,113.203,155.505,113.203z"/>
<path fill="#A97D51" d="M105.845,139.237c-8.326,6.075-2.507,13.21,3.414,17.094c6.332,4.154,15.569,7.107,23.089,3.315
	c3.378-1.704,7.177-8.846,2.204-11.049c-2.419-1.071-5.215,0.229-7.732,0.306c-6.19,0.191-9.212,1.124-13.072-4.128
	C111.771,142.088,110.292,137.707,105.845,139.237z"/>
<path fill="#A97D51" d="M163.367,198.197c0,0,10.541,11.319,16.339,7.72c5.798-3.599-7.054-12.189-7.054-12.189L163.367,198.197z"/>
<path fill="#A97D51" d="M130.114,198.197c0,0-10.541,11.319-16.339,7.72c-5.798-3.599,7.054-12.189,7.054-12.189L130.114,198.197z"
	/>
<path fill="#FFFFFF" d="M46.099,110.086c0,0-16.254,2.3-19.934-9.274C22.485,89.238,39.3,84.747,39.3,84.747l-7.281-11.369
	L11.922,91.825l5.658,20.186l10.536,6.439l10.536-1.171L46.099,110.086z"/>
<path fill="#A97D51" d="M103.178,161.545c0,0-10.629-2.047-14.065-12.355s-2.062-39.104-2.062-39.104s2.062-25.722-1.375-40.153
	c0,0-0.229,6.435-1.604,6.653c0,0-1.833-21.543-11.912-27.499c0,0,2.175,2.907,1.908,4.246c0,0-8.924-11.512-25.344-12.94
	S16.742,51.368,16.742,51.368S4.997,62.346,0,82.96c0,0,1.874-3.302,3.57-3.748c0,0-3.57,12.85,0.625,23.381
	c0,0-0.625-3.659,0.892-5.801c0,0,2.499,23.738,20.704,26.593s20.308-13.3,20.308-13.3s-6.069,6.426-14.628,4.263
	c-8.559-2.163-11.534-12.598-11.534-12.598s-1.822-9.505,4.198-14.113c6.02-4.609,15.165-2.89,15.165-2.89
	s9.498,1.626,15.403,13.326c4.571,9.055,4.702,17.781,4.702,23.142c0,0-2.351-2.446-2.822-4.233c0,0-2.728,14.579,7.807,30.85
	c0,0-1.975-0.094-5.079-4.044c0,0,1.787,10.346,10.91,18.341c0,0-4.515-1.79-6.208-3.67c0,0,7.148,13.64,21.163,22.105
	c14.014,8.465,25.253,3.668,25.253,3.668L103.178,161.545z"/>
<path fill="#FFFFFF" d="M61.342,76.241c14.632,16.958,8.348,43.524,10.192,60.72c1.712,15.964,3.663,29.89,16.389,38.835
	c5.821,4.091,13.36,5.898,20.431,5.517c-1.574-3.711-3.148-7.422-4.722-11.133c0,0-5.921-0.388-8.885-1.916
	c-13.195-6.803-15.396-22.575-17.297-34.826C74.509,114.489,75.597,92.762,61.342,76.241z"/>
<path fill="#FFFFFF" d="M115.828,75.756c0-8.615,0-24.419,11.547-24.419s11.547,15.803,11.547,24.419H115.828z"/>
<circle fill="#C3996C" cx="129.505" cy="67.172" r="7.015"/>
<circle fill="#010101" cx="129.505" cy="67.172" r="4.821"/>
<circle fill="#FFFFFF" cx="131.043" cy="65.32" r="1.081"/>
<path fill="#FFFFFF" d="M156.165,75.756c0-8.647,0-24.509,11.591-24.509c11.591,0,11.591,15.862,11.591,24.509H156.165z"/>
<circle fill="#C3996C" cx="165.697" cy="67.172" r="7.015"/>
<circle fill="#010101" cx="165.697" cy="67.172" r="4.821"/>
<circle fill="#FFFFFF" cx="167.235" cy="65.32" r="1.081"/>
<path fill="#A97D51" d="M189.148,139.237c8.326,6.075,2.507,13.21-3.414,17.094c-6.332,4.154-15.569,7.107-23.089,3.315
	c-3.378-1.704-7.177-8.846-2.204-11.049c2.419-1.071,5.215,0.229,7.732,0.306c6.19,0.191,9.212,1.124,13.072-4.128
	C183.221,142.088,184.702,137.707,189.148,139.237z"/>
<path fill="#010101" d="M138.877,113.203c-1.782,0-3.618-0.445-5.359-1.336c-0.4-0.205-0.558-0.695-0.354-1.095
	s0.695-0.559,1.095-0.354c3.034,1.553,6.38,1.541,8.953-0.031c1.839-1.125,2.937-2.883,2.937-4.704c0-0.449,0.364-0.814,0.814-0.814
	c0.449,0,0.814,0.364,0.814,0.814c0,2.392-1.389,4.67-3.715,6.092C142.505,112.726,140.72,113.203,138.877,113.203z"/>
</svg>
