<?xml version="1.0" encoding="utf-8"?>
<!-- Generator: Adobe Illustrator 17.0.0, SVG Export Plug-In . SVG Version: 6.00 Build 0)  -->
<!DOCTYPE svg PUBLIC "-//W3C//DTD SVG 1.1//EN" "http://www.w3.org/Graphics/SVG/1.1/DTD/svg11.dtd">
<svg version="1.1" id="Layer_1" xmlns="http://www.w3.org/2000/svg" xmlns:xlink="http://www.w3.org/1999/xlink" x="0px" y="0px"
	 width="273.482px" height="192.217px" viewBox="0 0 273.482 192.217" enable-background="new 0 0 273.482 192.217"
	 xml:space="preserve">
<g>
	<g>
		<path fill="#80BB41" d="M161.109,72.559c-13.292-7.298-29.097-25.525-31.158-27.939h-0.239
			c-2.061,2.414-17.867,20.641-31.159,27.939c0,0-5.565,3.334-2.894,3.334c2.498,0,27.969,2.465,34.172-1.411
			c6.203,3.876,31.674,1.411,34.173,1.411C166.675,75.893,161.109,72.559,161.109,72.559z"/>
		<path fill="#80BB41" d="M172.284,93.586c-18.041-7.296-39.493-25.523-42.29-27.935h-0.325
			c-2.797,2.412-24.248,20.639-42.289,27.935c0,0-7.555,3.335-3.928,3.335c3.391,0,37.96,2.467,46.379-1.411
			c8.419,3.878,42.989,1.411,46.38,1.411C179.838,96.921,172.284,93.586,172.284,93.586z"/>
		<path fill="#80BB41" d="M180.265,118.181c-21.433-9.166-46.919-32.06-50.24-35.094h-0.386
			c-3.321,3.034-28.807,25.929-50.241,35.094c0,0-8.973,4.186-4.666,4.186c4.029,0,45.097,3.099,55.099-1.77
			c10.002,4.869,51.071,1.77,55.1,1.77C189.238,122.367,180.265,118.181,180.265,118.181z"/>
		<path fill="#80BB41" d="M189.842,141.772c-25.503-9.164-55.829-32.06-59.782-35.091h-0.458
			c-3.953,3.031-34.279,25.927-59.781,35.091c0,0-10.679,4.189-5.552,4.189c4.793,0,46.53,4.813,65.674-4.932
			c17.142,12.053,60.658,4.932,65.451,4.932C200.521,145.961,189.842,141.772,189.842,141.772z"/>
		<path fill="#80BB41" d="M155.523,51.53c-10.919-7.296-23.902-25.525-25.593-27.939h-0.196
			c-1.692,2.414-14.675,20.643-25.594,27.939c0,0-4.57,3.335-2.376,3.335c2.052,0,22.973,2.465,28.068-1.411
			c5.096,3.876,26.017,1.411,28.069,1.411C160.094,54.865,155.523,51.53,155.523,51.53z"/>
		<path fill="#80BB41" d="M147.542,27.935C140.015,20.641,131.065,2.412,129.899,0h-0.136c-1.166,2.412-10.116,20.641-17.642,27.935
			c0,0-3.151,3.335-1.639,3.335c1.415,0,15.836,2.467,19.349-1.411c3.513,3.878,17.934,1.411,19.35,1.411
			C150.693,31.271,147.542,27.935,147.542,27.935z"/>
	</g>
	<path fill="#432517" d="M130.405,140.626h-1.096c-1.933,1-4.197,2.434-7.197,3.103v27.897h14v-26.952
		C135.112,143.786,132.43,143.626,130.405,140.626z"/>
</g>
<g>
	<rect x="213.983" y="164.827" fill="#432517" width="8.433" height="20.878"/>
	<polygon fill="#5DB25D" points="273.482,165.091 249.948,123.26 260.981,122.405 243.33,95.088 254.362,94.233 230.829,63.501 
		241.124,62.647 218.327,23.377 218.078,24.357 218.068,23.085 195.272,62.355 205.567,63.209 182.034,93.942 193.066,94.795 
		175.416,122.115 186.447,122.967 162.914,164.8 182.249,164.547 182.23,164.624 	"/>
</g>
<g>
	<path opacity="0.7" fill="#F89623" d="M37.256,34.825c0,0,39.193,72.87,40.127,99.21c0.933,26.338-16.922,45.081-61.234,30.728
		C-29.933,149.838,37.256,34.825,37.256,34.825"/>
	<path opacity="0.7" fill="#F89623" d="M57.91,49.811c0,0,19.137,73.364,14.323,96.413c-4.815,23.046-24.657,34.589-60.864,10.546
		C-26.285,131.764,57.91,49.811,57.91,49.811"/>
	<polygon fill="#432517" points="23.385,141.208 37.538,150.717 37.538,129.159 32.999,125.716 22.638,129.705 21.77,127.454 
		30.738,124.001 23.597,118.584 25.054,116.66 37.538,126.13 37.538,101.835 40.905,101.835 40.905,113.661 48.559,107.661 
		50.049,109.56 40.905,116.727 40.905,140.846 48.27,136.97 49.348,126.246 51.751,126.489 50.831,135.623 58.621,131.525 
		59.745,133.661 40.905,143.573 40.905,160.948 53.465,154.34 54.588,156.476 40.905,163.675 40.905,192.217 37.538,192.217 
		37.538,153.625 22.038,143.211 	"/>
</g>
</svg>
