<?xml version="1.0" encoding="utf-8"?>
<!-- Generator: Adobe Illustrator 17.0.0, SVG Export Plug-In . SVG Version: 6.00 Build 0)  -->
<!DOCTYPE svg PUBLIC "-//W3C//DTD SVG 1.1//EN" "http://www.w3.org/Graphics/SVG/1.1/DTD/svg11.dtd">
<svg version="1.1" id="Layer_1" xmlns="http://www.w3.org/2000/svg" xmlns:xlink="http://www.w3.org/1999/xlink" x="0px" y="0px"
	 width="366.114px" height="195.716px" viewBox="0 0 366.114 195.716" enable-background="new 0 0 366.114 195.716"
	 xml:space="preserve">
<g>
	<path opacity="0.7" fill="#F05124" d="M333.578,43.012c0,0,31.751,59.033,32.507,80.372c0.756,21.337-13.709,36.521-49.607,24.893
		C279.147,136.185,333.578,43.012,333.578,43.012"/>
	<path opacity="0.7" fill="#F05124" d="M350.311,55.152c0,0,15.503,59.433,11.603,78.105c-3.9,18.67-19.975,28.021-49.307,8.543
		C282.103,121.544,350.311,55.152,350.311,55.152"/>
	<polygon fill="#432517" points="322.341,129.195 333.807,136.898 333.807,119.433 330.13,116.644 321.736,119.876 321.033,118.052 
		328.298,115.255 322.513,110.866 323.693,109.308 333.807,116.979 333.807,97.297 336.535,97.297 336.535,106.878 342.735,102.017 
		343.943,103.556 336.535,109.362 336.535,128.901 342.501,125.761 343.374,117.074 345.321,117.27 344.576,124.67 350.887,121.35 
		351.797,123.08 336.535,131.11 336.535,145.186 346.709,139.833 347.619,141.564 336.535,147.395 336.535,170.518 333.807,170.518 
		333.807,139.253 321.25,130.817 	"/>
</g>
<g>
	<g opacity="0.7">
		<path fill="#5D9B6F" d="M234.969,70.362c-11.226-6.164-24.575-21.559-26.317-23.597h-0.202
			c-1.74,2.039-15.091,17.434-26.317,23.597c0,0-4.7,2.816-2.444,2.816c2.11,0,23.622,2.082,28.862-1.192
			c5.239,3.274,26.752,1.192,28.863,1.192C239.669,73.177,234.969,70.362,234.969,70.362z"/>
		<path fill="#5D9B6F" d="M244.407,88.121c-15.238-6.162-33.357-21.557-35.718-23.595h-0.275
			c-2.362,2.037-20.48,17.432-35.718,23.595c0,0-6.381,2.817-3.317,2.817c2.864,0,32.061,2.083,39.172-1.192
			c7.111,3.275,36.309,1.192,39.173,1.192C250.787,90.938,244.407,88.121,244.407,88.121z"/>
		<path fill="#5D9B6F" d="M251.147,108.894c-18.103-7.741-39.628-27.078-42.433-29.641h-0.326
			c-2.805,2.563-24.331,21.9-42.434,29.641c0,0-7.579,3.535-3.941,3.535c3.403,0,38.089,2.617,46.537-1.495
			c8.448,4.112,43.135,1.495,46.538,1.495C258.727,112.429,251.147,108.894,251.147,108.894z"/>
		<path fill="#5D9B6F" d="M259.237,128.819c-21.54-7.74-47.154-27.078-50.492-29.638h-0.387
			c-3.338,2.56-28.952,21.898-50.492,29.638c0,0-9.019,3.538-4.69,3.538c4.048,0,39.3,4.065,55.469-4.166
			c14.478,10.18,51.232,4.166,55.28,4.166C268.256,132.357,259.237,128.819,259.237,128.819z"/>
		<path fill="#5D9B6F" d="M230.251,52.6c-9.223-6.162-20.188-21.559-21.617-23.597h-0.166c-1.429,2.039-12.395,17.435-21.617,23.597
			c0,0-3.86,2.817-2.007,2.817c1.733,0,19.403,2.082,23.706-1.192c4.304,3.274,21.974,1.192,23.707,1.192
			C234.111,55.417,230.251,52.6,230.251,52.6z"/>
		<path fill="#5D9B6F" d="M223.51,32.672c-6.357-6.161-13.916-21.557-14.902-23.595h-0.115c-0.985,2.037-8.544,17.433-14.901,23.595
			c0,0-2.661,2.817-1.384,2.817c1.195,0,13.376,2.083,16.342-1.192c2.967,3.275,15.147,1.192,16.343,1.192
			C226.171,35.489,223.51,32.672,223.51,32.672z"/>
	</g>
	<path fill="#432517" d="M209.036,128.034h-0.926c-1.633,1-3.874,1.873-5.874,2.438v23.562h12V131.27
		C213.236,130.521,210.746,130.034,209.036,128.034z"/>
</g>
<g>
	<g opacity="0.7">
		<path fill="#5E8B50" d="M82.969,91.362c-11.226-6.164-24.575-21.559-26.317-23.597H56.45c-1.74,2.039-15.091,17.434-26.317,23.597
			c0,0-4.7,2.816-2.444,2.816c2.11,0,23.622,2.082,28.862-1.192c5.239,3.274,26.752,1.192,28.863,1.192
			C87.669,94.177,82.969,91.362,82.969,91.362z"/>
		<path fill="#5E8B50" d="M92.407,109.121c-15.238-6.162-33.357-21.557-35.718-23.595h-0.275
			c-2.362,2.037-20.481,17.432-35.718,23.595c0,0-6.381,2.817-3.317,2.817c2.864,0,32.061,2.083,39.172-1.192
			c7.111,3.275,36.309,1.192,39.173,1.192C98.787,111.938,92.407,109.121,92.407,109.121z"/>
		<path fill="#5E8B50" d="M99.147,129.894c-18.103-7.741-39.628-27.078-42.433-29.641h-0.326
			c-2.805,2.563-24.331,21.9-42.434,29.641c0,0-7.579,3.535-3.941,3.535c3.403,0,38.089,2.617,46.537-1.495
			c8.448,4.112,43.135,1.495,46.538,1.495C106.727,133.429,99.147,129.894,99.147,129.894z"/>
		<path fill="#5E8B50" d="M107.237,149.819c-21.54-7.74-47.154-27.078-50.492-29.638h-0.387
			c-3.338,2.56-28.952,21.898-50.492,29.638c0,0-9.019,3.538-4.69,3.538c4.048,0,39.3,4.065,55.469-4.166
			c14.478,10.18,51.232,4.166,55.28,4.166C116.256,153.357,107.237,149.819,107.237,149.819z"/>
		<path fill="#5E8B50" d="M78.251,73.6c-9.223-6.162-20.188-21.559-21.617-23.597h-0.166C55.039,52.041,44.074,67.437,34.851,73.6
			c0,0-3.86,2.817-2.007,2.817c1.733,0,19.403,2.082,23.706-1.192c4.304,3.274,21.974,1.192,23.707,1.192
			C82.111,76.417,78.251,73.6,78.251,73.6z"/>
		<path fill="#5E8B50" d="M71.51,53.672c-6.357-6.161-13.916-21.557-14.902-23.595h-0.115c-0.985,2.037-8.544,17.433-14.901,23.595
			c0,0-2.661,2.817-1.384,2.817c1.195,0,13.376,2.083,16.342-1.192c2.967,3.275,15.147,1.192,16.343,1.192
			C74.171,56.489,71.51,53.672,71.51,53.672z"/>
	</g>
	<path fill="#432517" d="M57.036,149.034H56.11c-1.633,1-3.874,1.873-5.874,2.438v23.562h12V152.27
		C61.236,151.521,58.746,151.034,57.036,149.034z"/>
</g>
<g>
	<rect x="275.641" y="143.708" fill="#432517" width="11.573" height="43.008"/>
	<polygon opacity="0.7" fill="#FDB813" points="281.236,144.034 302.236,144.034 281.427,0 259.944,144.434 	"/>
</g>
<g>
	<rect x="122.641" y="152.708" fill="#432517" width="11.573" height="43.008"/>
	<polygon opacity="0.7" fill="#F05225" points="128.236,153.034 149.236,153.034 128.427,9 106.944,153.434 	"/>
</g>
</svg>
