<?xml version="1.0" encoding="utf-8"?>
<!-- Generator: Adobe Illustrator 17.0.0, SVG Export Plug-In . SVG Version: 6.00 Build 0)  -->
<!DOCTYPE svg PUBLIC "-//W3C//DTD SVG 1.1//EN" "http://www.w3.org/Graphics/SVG/1.1/DTD/svg11.dtd">
<svg version="1.1" id="Layer_1" xmlns="http://www.w3.org/2000/svg" xmlns:xlink="http://www.w3.org/1999/xlink" x="0px" y="0px"
	 width="1366.002px" height="338.769px" viewBox="0 0 1366.002 338.769" enable-background="new 0 0 1366.002 338.769"
	 xml:space="preserve">
<path fill="#1C3144" d="M0,259.812v69.713l0,0v9.244h1366.002v-9.244l0,0v-69.713h-7.356v-9.368h-3.194v-7.635h-10.312V202.88
	h-28.28v47.564h-0.757v9.368h-1.181v-39.02h-4.741v-4.309h-1.085V61.208h-14.795V45.911h-19.973V0h-1.478v45.911h-19.973v15.297
	h-14.795v148.82h-14.677v3.228h-12.468v7.537h-3.492v14.381h-4.521v-11.048h2.205l-13.818-8.683h-10.072v-2.016h-0.726v-2.635
	h-1.024v-9.809h1.169v-1.891h-1.169h-1.597v-1.252h-1.459v-16.225h1.459v-1.509h-18.502v1.509h1.463v16.225h-1.463v1.252h-1.597
	h-1.165v1.891h1.165v9.809h-1.024v2.635h-0.726v2.016h-1.001h-0.661v-3.807h-27.852v9.499l-8.315,2.991h1.418v21.74h-2.244v-8.42
	h-20.66v-1.357h-5.766v-92.105l2.935-2.628v-12.767h-17.382v-4.091h1.678h0.26l1.597-4.223h-0.516l1.556-4.097h0.504l1.135-2.965
	v-1.759c-3.149-0.255-6.427-0.467-9.806-0.636l-3.453-9.114h-0.107c0-0.56-6.851-1.021-15.253-1.021
	c-8.391,0-15.242,0.461-15.242,1.021l-3.445,9.114c-3.379,0.169-6.657,0.381-9.807,0.636v1.759l1.124,2.965h0.516l1.555,4.097
	h-0.512l1.593,4.223h0.26h1.677v4.091h-17.381v12.767l2.935,2.628v66.775h-6.645v-1.364h-7.909v-10.646H992.42v-37.465h-7.493
	v-4.309h-24.122v4.309h-19.136v67.895h-5.162v-42.485h-16.381v-3.861h-22.288v3.861h-40.491v50.859h-2.721v-72.15h-29.372V104.63
	h-3.787v-1.674h-2.988v-1.093h-3.943v1.093h-9.591v1.674h-4.57V91.538h-0.787v13.091h-2.048v-3.986h-11.172v2.715h-6.611v1.272
	h-27.71v91.643h-13.874V71.781h-72.726v-2.319H617.99v2.319h-58.474v58.665h-11.334v76.064h-8.188v10.442h-3.462v-49.218h-10.439
	V127.91h0.733l1.269-1.844v-2.826h-1.361v-0.64h-4.696v0.64h-1.662v-10.568h0.738v-3.438h-0.738h-1.708v-5.066v-2.22v-2.484h-2.132
	v2.484h-0.889l-27.601-9.576v-2.209h-2.136v2.208l-27.597,9.577h-0.888v-2.484h-2.136v2.484v2.22v5.066h-1.704h-0.742v3.438h0.742
	v10.568h-1.67v-0.64h-4.692v0.64h-1.364v2.826l1.276,1.844h0.734v69.226h-14.49v35.337h-5.216v-91.268h-7.757v-3.807h-26.87v3.807
	h-18.337V207.9h-8.369v39.297h-2.46V132.745h-4.742v-3.149h3.064v-1.278h-4.043v-1.792h-14.726v-2.649h-6.248v-0.939
	c0.358,0.439,0.935,0.728,1.59,0.728c1.081,0,1.967-0.784,1.967-1.752c0-0.962-0.886-1.746-1.967-1.746
	c-0.655,0-1.232,0.288-1.59,0.726v-13.23h-0.863v-1.166h-2.942v-5.402h-1.104v5.402h-2.212v-1.693h-2.449v-35.6h-1.601v33.901
	h-4.903v3.393h-3.19v1.166h-1.348v9.781c-1.309,0.156-2.339,1.286-2.339,2.663c0,1.389,1.03,2.521,2.339,2.677v1.092h-2.339v2.649
	h-14.726v1.792h-4.035v1.278h3.057v3.149h-4.738v106.816h-10.485v20.251h-3.118v-1.529h-1.284v-51.043h-3.149v-97.395h-3.148v-36.55
	v-8.261v-2.174h-2.125V57.36h-1.054v-6.766l-1.193-1.258V34.89h-0.795V21.588h-1.207V34.89h-0.794v14.447l-1.193,1.258v6.766h-1.054
	v5.501h-2.14v2.174H199.75v-2.174h-2.125V57.36h-1.055v-6.766l-1.207-1.258V34.89h-0.779V21.588h-1.207V34.89h-0.795v14.447
	l-1.192,1.258v6.766h-1.07v5.501h-2.125v2.174v8.261v36.55h-3.133v97.015h-5.319v51.798h-1.452v1.153h-3.531v-21.016h-15.07V224.39
	h-3.179v-19.434h-7.719v-48.658h-1.574v-5.428h-1.345v-2.708h-3.149v-3.867l-9.629-14.002v-1.881h-29.162v-1.16h-2.904v1.16h-2.46
	v-1.16h-2.935v1.16H89.58v1.88l-9.644,14.002v3.867h-3.133v2.708h-1.345v5.428h-1.559v81.539h-4.157v21.977h-3.149v-19.111h-8.421
	v-17.188h-0.994v-22.458H41.053v22.458h-8.376V205.78H7.84v34.923H4.539v19.111H0V259.812z M1169.104,171.001v-2.885
	c1.15-0.186,2.025-1.052,2.025-2.101c0-1.173-1.116-2.134-2.484-2.134s-2.48,0.961-2.48,2.134c0,1.048,0.869,1.913,2.014,2.101
	v2.886h-0.604v3.898l-5.827,5.154h13.794l-5.835-5.16v-3.891h-0.603V171.001z M319.515,106.177h1.471v-0.949h-1.471V106.177z"/>
</svg>
