<?xml version="1.0" encoding="utf-8"?>
<!-- Generator: Adobe Illustrator 17.0.0, SVG Export Plug-In . SVG Version: 6.00 Build 0)  -->
<!DOCTYPE svg PUBLIC "-//W3C//DTD SVG 1.1//EN" "http://www.w3.org/Graphics/SVG/1.1/DTD/svg11.dtd">
<svg version="1.1" id="Layer_1" xmlns="http://www.w3.org/2000/svg" xmlns:xlink="http://www.w3.org/1999/xlink" x="0px" y="0px"
	 width="225.6px" height="138.4px" viewBox="0 0 225.6 138.4" enable-background="new 0 0 225.6 138.4" xml:space="preserve">
<path fill="#96FF45" d="M186.322,67.22c-0.014-8.125-7.137-16.863-17.988-21.094c-7.414-2.891-14.969-3.051-20.77-0.96
	c-3.484-10.98-12.12-18.754-22.221-18.754c-5.05,0-9.732,1.945-13.589,5.26c-5.664-9.76-16.166-16.316-28.188-16.316
	c-17.999,0-32.596,14.694-32.64,32.837c-10.309,0.981-18.669,8.645-20.695,18.612c-10.004,3.414-17.2,12.893-17.2,24.054
	c0,14.033,11.377,25.298,25.41,25.298c1.252,0,146.083-0.176,146.761-0.176c12.91,0,23.376-10.891,23.376-24.394
	C208.579,78.475,198.713,67.83,186.322,67.22z"/>
<path fill="#FFFFFF" d="M186.322,67.22c-0.014-8.125-7.137-16.863-17.988-21.094c-7.414-2.891-14.969-3.051-20.77-0.96
	c-3.484-10.98-12.12-18.754-22.221-18.754c-5.05,0-9.732,1.945-13.589,5.26c-5.664-9.76-16.166-16.316-28.188-16.316
	c-17.999,0-32.596,14.694-32.64,32.837c-10.309,0.981-18.669,8.645-20.695,18.612c-10.004,3.414-17.2,12.893-17.2,24.053
	c0,14.034,11.377,25.299,25.41,25.299c1.252,0,146.083-0.176,146.761-0.176c12.91,0,23.376-10.891,23.376-24.395
	C208.579,78.475,198.713,67.83,186.322,67.22z"/>
</svg>
