<?xml version="1.0" encoding="utf-8"?>
<!-- Generator: Adobe Illustrator 17.0.0, SVG Export Plug-In . SVG Version: 6.00 Build 0)  -->
<!DOCTYPE svg PUBLIC "-//W3C//DTD SVG 1.1//EN" "http://www.w3.org/Graphics/SVG/1.1/DTD/svg11.dtd">
<svg version="1.1" id="Layer_1" xmlns="http://www.w3.org/2000/svg" xmlns:xlink="http://www.w3.org/1999/xlink" x="0px" y="0px"
	 width="250.964px" height="224.294px" viewBox="0 0 250.964 224.294" enable-background="new 0 0 250.964 224.294"
	 xml:space="preserve">
<g>
	<g>
		<defs>
			<rect id="SVGID_1_" x="6.408" y="53.572" width="179.287" height="179.287"/>
		</defs>
		<clipPath id="SVGID_2_">
			<use xlink:href="#SVGID_1_"  overflow="visible"/>
		</clipPath>
		<g clip-path="url(#SVGID_2_)">
			<defs>
				<rect id="SVGID_3_" x="6.408" y="53.572" width="179.287" height="179.287"/>
			</defs>
			<clipPath id="SVGID_4_">
				<use xlink:href="#SVGID_3_"  overflow="visible"/>
			</clipPath>
			<path clip-path="url(#SVGID_4_)" fill="#A97C50" d="M163.358,168.268c8.811,26.619-0.543,47.936-31.199,47.936
				c-32.257,0-38.307-20.912-30.83-47.936c7.774-28.095,30.907-36.043,30.907-36.043S154.058,140.173,163.358,168.268"/>
			<path clip-path="url(#SVGID_4_)" fill="#FFFFFF" d="M156.404,168.559c6.758,20.934,8.442,42.49-24.194,42.49
				s-30.824-21.426-24.484-42.49c5.607-18.629,17.558-32.218,24.462-32.568C138.765,135.658,149.34,146.675,156.404,168.559"/>
			<path clip-path="url(#SVGID_4_)" fill="#A97C50" d="M99.922,88.697c0,0-2.331-18.89-0.542-23.172
				c0.646-1.547,3.692-3.125,6.299-2.229c4.209,1.446,10.982,15.774,10.982,15.774L99.922,88.697z"/>
			<path clip-path="url(#SVGID_4_)" fill="#231F20" d="M102.511,84.848V73.322c0,0,0.58-3.113,2.248-3.504
				c1.667-0.39,8.147,8.74,8.147,8.74L102.511,84.848z"/>
			<path clip-path="url(#SVGID_4_)" fill="#A97C50" d="M164.241,88.697c0,0,2.331-18.89,0.542-23.172
				c-0.646-1.547-3.692-3.125-6.299-2.229c-4.209,1.446-10.982,15.774-10.982,15.774L164.241,88.697z"/>
			<path clip-path="url(#SVGID_4_)" fill="#231F20" d="M161.652,84.848V73.322c0,0-0.58-3.113-2.247-3.504
				c-1.667-0.39-8.148,8.74-8.148,8.74L161.652,84.848z"/>
			<path clip-path="url(#SVGID_4_)" fill="#A97C50" d="M172.686,119.424c0,24.651-24.32,39.08-41.45,39.08
				c-18.113,0-39.45-14.429-39.45-39.08c0-31.46,9.971-46.832,40.108-46.832C160.939,72.592,172.686,87.965,172.686,119.424"/>
			<path clip-path="url(#SVGID_4_)" fill="#C49A6C" d="M104.506,148.017c7.627,6.81,17.588,10.487,26.73,10.487
				c8.986,0,19.948-3.972,28.342-11.305c-3.019-7.069-14.132-12.314-27.381-12.314C118.218,134.885,106.732,140.357,104.506,148.017
				C104.541,147.894,104.465,148.138,104.506,148.017"/>
			<path clip-path="url(#SVGID_4_)" fill="#231F20" d="M136.624,134.884l-4.443-0.216l-4.443,0.216
				c-2.378,0-2.452,1.491-2.452,1.491v1.617c0-0.866-0.328,5.725,6.894,7.143c0,0,6.895-1.828,6.895-7.377v-1.383
				C139.076,136.375,139.002,134.884,136.624,134.884"/>
			
				<path clip-path="url(#SVGID_4_)" fill="none" stroke="#231F20" stroke-width="4" stroke-linecap="round" stroke-miterlimit="10" d="
				M132.308,143.9c0,3.725,5.002,6.739,10.004,4.177"/>
			<path clip-path="url(#SVGID_4_)" fill="#A97C50" d="M100.496,169.575c-6.371,4.649-1.918,10.108,2.612,13.08
				c4.845,3.179,11.913,5.438,17.667,2.536c2.584-1.303,5.491-6.769,1.686-8.454c-1.85-0.82-3.991,0.175-5.916,0.234
				c-4.736,0.146-7.049,0.86-10.003-3.159C105.031,171.756,103.898,168.404,100.496,169.575"/>
			<path clip-path="url(#SVGID_4_)" fill="#A97C50" d="M144.511,214.689c0,0,8.065,8.661,12.502,5.907
				c4.437-2.754-5.398-9.326-5.398-9.326L144.511,214.689z"/>
			<path clip-path="url(#SVGID_4_)" fill="#A97C50" d="M119.066,214.689c0,0-8.065,8.661-12.502,5.907
				c-4.437-2.754,5.398-9.326,5.398-9.326L119.066,214.689z"/>
			<path clip-path="url(#SVGID_4_)" fill="#FFFFFF" d="M54.78,147.269c0,0-12.437,1.76-15.253-7.096
				c-2.816-8.856,10.05-12.292,10.05-12.292l-5.572-8.699l-15.377,14.115l4.329,15.445l8.062,4.927l8.062-0.896L54.78,147.269z"/>
			<path clip-path="url(#SVGID_4_)" fill="#A97C50" d="M98.455,186.644c0,0-8.133-1.566-10.763-9.454
				c-2.629-7.887-1.577-29.922-1.577-29.922s1.577-19.682-1.051-30.724c0,0-0.176,4.924-1.227,5.091c0,0-1.402-16.484-9.114-21.041
				c0,0,1.665,2.225,1.46,3.249c0,0-6.828-8.808-19.393-9.901c-12.564-1.093-24.473,8.398-24.473,8.398s-8.986,8.4-12.811,24.174
				c0,0,1.434-2.527,2.732-2.868c0,0-2.732,9.833,0.478,17.89c0,0-0.478-2.8,0.683-4.439c0,0,1.912,18.164,15.842,20.349
				s15.539-10.177,15.539-10.177s-4.644,4.917-11.193,3.262c-6.549-1.655-8.826-9.64-8.826-9.64s-1.394-7.273,3.213-10.799
				c4.606-3.527,11.604-2.211,11.604-2.211s7.267,1.244,11.786,10.197c3.497,6.928,3.598,13.605,3.598,17.707
				c0,0-1.799-1.871-2.159-3.238c0,0-2.087,11.155,5.973,23.606c0,0-1.511-0.072-3.886-3.095c0,0,1.367,7.916,8.348,14.034
				c0,0-3.454-1.37-4.75-2.808c0,0,5.469,10.437,16.193,16.914c10.724,6.477,19.323,2.807,19.323,2.807L98.455,186.644z"/>
			<path clip-path="url(#SVGID_4_)" fill="#FFFFFF" d="M66.443,121.372c11.196,12.976,6.388,33.303,7.799,46.461
				c1.31,12.215,2.803,22.871,12.541,29.716c4.454,3.131,10.222,4.513,15.633,4.222c-1.205-2.84-2.409-5.679-3.613-8.519
				c0,0-4.531-0.297-6.799-1.467c-10.096-5.206-11.781-17.273-13.235-26.648C76.519,150.638,77.351,134.013,66.443,121.372"/>
			<path clip-path="url(#SVGID_4_)" fill="#FFFFFF" d="M108.135,121.001c0-6.592,0-18.684,8.836-18.684
				c8.836,0,8.836,12.092,8.836,18.684H108.135z"/>
			<path clip-path="url(#SVGID_4_)" fill="#C49A6C" d="M123.968,114.433c0,2.964-2.403,5.367-5.367,5.367
				c-2.964,0-5.367-2.403-5.367-5.367c0-2.964,2.403-5.367,5.367-5.367C121.565,109.065,123.968,111.469,123.968,114.433"/>
			<path clip-path="url(#SVGID_4_)" fill="#231F20" d="M122.289,114.433c0,2.037-1.652,3.689-3.689,3.689
				c-2.037,0-3.688-1.652-3.688-3.689c0-2.037,1.651-3.689,3.688-3.689C120.637,110.744,122.289,112.396,122.289,114.433"/>
			<path clip-path="url(#SVGID_4_)" fill="#FFFFFF" d="M120.605,113.015c0,0.457-0.37,0.827-0.827,0.827
				c-0.457,0-0.827-0.37-0.827-0.827c0-0.457,0.37-0.827,0.827-0.827C120.234,112.188,120.605,112.558,120.605,113.015"/>
			<path clip-path="url(#SVGID_4_)" fill="#FFFFFF" d="M139,121.001c0-6.617,0-18.754,8.869-18.754
				c8.869,0,8.869,12.137,8.869,18.754H139z"/>
			<path clip-path="url(#SVGID_4_)" fill="#C49A6C" d="M151.66,114.433c0,2.964-2.403,5.367-5.367,5.367
				c-2.964,0-5.367-2.403-5.367-5.367c0-2.964,2.403-5.367,5.367-5.367C149.257,109.065,151.66,111.469,151.66,114.433"/>
			<path clip-path="url(#SVGID_4_)" fill="#231F20" d="M149.982,114.433c0,2.037-1.652,3.689-3.689,3.689
				c-2.037,0-3.688-1.652-3.688-3.689c0-2.037,1.651-3.689,3.688-3.689C148.33,110.744,149.982,112.396,149.982,114.433"/>
			<path clip-path="url(#SVGID_4_)" fill="#FFFFFF" d="M148.297,113.015c0,0.457-0.37,0.827-0.827,0.827
				c-0.457,0-0.827-0.37-0.827-0.827c0-0.457,0.37-0.827,0.827-0.827C147.927,112.188,148.297,112.558,148.297,113.015"/>
			<path clip-path="url(#SVGID_4_)" fill="#A97C50" d="M164.238,169.575c6.371,4.649,1.918,10.108-2.612,13.08
				c-4.845,3.179-11.913,5.438-17.667,2.536c-2.584-1.303-5.491-6.769-1.686-8.454c1.85-0.82,3.991,0.175,5.916,0.234
				c4.736,0.146,7.049,0.86,10.003-3.159C159.703,171.756,160.835,168.404,164.238,169.575"/>
			
				<path clip-path="url(#SVGID_4_)" fill="none" stroke="#231F20" stroke-width="4" stroke-linecap="round" stroke-miterlimit="10" d="
				M131.958,143.9c0,3.725-5.002,6.739-10.004,4.177"/>
		</g>
	</g>
</g>
<g>
	<path fill="#FFFFFF" d="M188.83,78.926c0.289-1.182,0.873-2.086,1.751-2.712s1.915-0.793,3.112-0.5
		c1.197,0.294,2.109,0.938,2.74,1.935c0.629,0.996,0.799,2.085,0.51,3.267c-0.295,1.199-0.949,2.086-1.963,2.659
		s-2.119,0.713-3.316,0.42c-1.197-0.294-2.043-0.912-2.535-1.854C188.635,81.196,188.535,80.126,188.83,78.926z M191.582,53.445
		c0.859-3.508,2.469-6.034,4.829-7.58c2.358-1.544,4.966-1.967,7.819-1.268c3.001,0.736,5.258,2.321,6.77,4.755
		c1.51,2.435,1.859,5.311,1.047,8.629c-0.633,2.578-1.84,4.636-3.619,6.171c-1.78,1.537-3.879,2.545-6.298,3.026
		c-0.53,0.085-0.978,0.22-1.347,0.402c-0.367,0.184-0.67,0.378-0.906,0.583c-0.236,0.206-0.475,0.578-0.713,1.114
		c-0.238,0.537-0.427,1.004-0.562,1.399c-0.137,0.397-0.355,1.086-0.654,2.066l-6.535-1.602c0.314-1.603,0.547-2.707,0.695-3.315
		c0.529-2.155,1.416-3.715,2.664-4.678c1.247-0.964,3.105-1.709,5.578-2.236c1.449-0.405,2.557-0.974,3.322-1.704
		c0.767-0.729,1.297-1.693,1.59-2.891c0.326-1.326,0.238-2.471-0.26-3.433s-1.283-1.573-2.354-1.836
		c-0.996-0.244-1.908-0.018-2.734,0.679c-0.827,0.697-1.426,1.804-1.797,3.318L191.582,53.445z"/>
</g>
<g>
	<path fill="#FFFFFF" d="M122.448,11.701c-0.034-3.611,0.899-6.457,2.804-8.538c1.903-2.08,4.324-3.135,7.263-3.163
		c3.09-0.029,5.668,0.949,7.734,2.933s3.115,4.685,3.148,8.102c0.025,2.655-0.636,4.946-1.98,6.875s-3.129,3.425-5.354,4.489
		c-0.492,0.214-0.894,0.455-1.205,0.723c-0.311,0.268-0.556,0.532-0.733,0.789c-0.179,0.258-0.316,0.677-0.416,1.256
		c-0.099,0.58-0.165,1.079-0.199,1.496s-0.075,1.139-0.122,2.163l-6.729,0.064c-0.092-1.63-0.14-2.758-0.146-3.384
		c-0.021-2.219,0.453-3.949,1.424-5.191c0.97-1.242,2.586-2.424,4.851-3.546c1.305-0.752,2.238-1.576,2.799-2.473
		c0.562-0.896,0.837-1.961,0.825-3.194c-0.013-1.365-0.38-2.452-1.101-3.261c-0.72-0.809-1.632-1.208-2.734-1.197
		c-1.026,0.01-1.854,0.455-2.481,1.334c-0.629,0.88-0.936,2.1-0.921,3.659L122.448,11.701z M126.081,37.07
		c-0.011-1.216,0.331-2.237,1.027-3.061c0.695-0.824,1.659-1.242,2.892-1.253s2.276,0.387,3.133,1.196
		c0.856,0.81,1.291,1.822,1.302,3.039c0.013,1.235-0.403,2.256-1.243,3.062c-0.842,0.807-1.878,1.216-3.11,1.228
		s-2.204-0.378-2.915-1.17C126.454,39.319,126.094,38.306,126.081,37.07z"/>
</g>
<g>
	<path fill="#FFFFFF" d="M57.373,49.264c-1.139-3.427-1.121-6.422,0.055-8.986c1.174-2.564,3.156-4.31,5.944-5.236
		c2.933-0.975,5.686-0.833,8.261,0.422c2.575,1.256,4.401,3.506,5.479,6.748c0.838,2.52,0.912,4.903,0.222,7.151
		c-0.688,2.249-1.93,4.219-3.721,5.913c-0.403,0.354-0.711,0.707-0.926,1.058c-0.214,0.351-0.366,0.677-0.456,0.976
		c-0.091,0.3-0.095,0.741-0.012,1.323c0.084,0.583,0.173,1.078,0.268,1.485c0.096,0.408,0.278,1.107,0.547,2.097l-6.385,2.122
		c-0.586-1.523-0.978-2.583-1.176-3.176c-0.699-2.106-0.778-3.898-0.234-5.378c0.543-1.479,1.72-3.1,3.531-4.861
		c1.012-1.115,1.646-2.186,1.907-3.211c0.26-1.025,0.195-2.124-0.194-3.293c-0.43-1.296-1.111-2.218-2.046-2.768
		c-0.933-0.549-1.923-0.649-2.97-0.302c-0.974,0.324-1.625,1-1.953,2.03c-0.33,1.03-0.248,2.285,0.244,3.765L57.373,49.264z
		 M68.605,72.301c-0.384-1.154-0.371-2.23,0.04-3.229c0.409-0.997,1.199-1.69,2.368-2.079s2.286-0.329,3.349,0.178
		c1.062,0.508,1.787,1.34,2.171,2.494c0.39,1.172,0.307,2.271-0.246,3.296c-0.554,1.025-1.415,1.733-2.585,2.122
		c-1.169,0.389-2.214,0.314-3.133-0.221C69.649,74.327,68.994,73.473,68.605,72.301z"/>
</g>
</svg>
