<?xml version="1.0" encoding="utf-8"?>
<!-- Generator: Adobe Illustrator 17.0.0, SVG Export Plug-In . SVG Version: 6.00 Build 0)  -->
<!DOCTYPE svg PUBLIC "-//W3C//DTD SVG 1.1//EN" "http://www.w3.org/Graphics/SVG/1.1/DTD/svg11.dtd">
<svg version="1.1" id="Layer_1" xmlns="http://www.w3.org/2000/svg" xmlns:xlink="http://www.w3.org/1999/xlink" x="0px" y="0px"
	 width="572.012px" height="749.531px" viewBox="0 0 572.012 749.531" enable-background="new 0 0 572.012 749.531"
	 xml:space="preserve">
<polyline fill="#FFFFFF" points="281.806,703.531 240.346,748.531 358.012,750.531 382.623,703.423 281.806,703.531 "/>
<polygon fill="#F0513B" points="6.012,703.531 502.012,703.531 501.943,659.714 "/>
<polygon fill="#FFFFFF" points="167.012,470.038 6.012,492.235 6.012,510.893 167.012,489.704 "/>
<polygon fill="#F0513B" points="206.012,499.959 206.012,687.491 503.012,664.282 503.012,465.609 "/>
<g>
	<path fill="#FFFFFF" d="M316.908,514.531h-2.896v-3h0.906c0,0,1.095-8.681,12.932-12.069c0,0,11.201,1.535,13.959,11.655
		c0,0,3.386-11.043,15.204-13.503c0,0,10.418,1.916,12.146,10.916h1.212l0.136,2.816l-2.865-0.246L316.908,514.531z"/>
	<g>
		<path fill="#9AD5D2" d="M317.012,562.38l21-1.842V511.08c0,0,0.21-6.055-9.664-8.725c0,0-9.336,1.526-11.336,12.59V562.38z"/>
		<polygon fill="#1D3144" points="317.012,535.949 317.012,537.939 338.012,534.674 338.012,532.965 		"/>
		<path fill="#1D3144" d="M328.348,502.355c0,0-9.336,1.526-11.336,12.59v47.435l21-1.842V511.08
			C338.012,511.08,338.223,505.025,328.348,502.355z M336.012,512.516v46.286l-17,1.589v-44.354c1-10.076,9.182-11.466,9.182-11.466
			C336.246,507.002,336.012,512.516,336.012,512.516z"/>
		<rect x="327.012" y="502.531" fill="#1D3144" width="2" height="59"/>
	</g>
	<g>
		<path fill="#9AD5D2" d="M345.012,560.39l22-1.842v-49.458c0,0-0.29-6.055-10.164-8.725c0,0-9.836,1.526-11.836,12.59V560.39z"/>
		<polygon fill="#1D3144" points="345.012,533.96 345.012,535.949 367.012,532.684 367.012,530.976 		"/>
		<path fill="#1D3144" d="M356.848,500.365c0,0-9.836,1.526-11.836,12.59v47.435l22-1.842v-49.458
			C367.012,509.091,366.723,503.036,356.848,500.365z M365.012,510.526v46.286l-18,1.589v-44.354
			c2-10.076,9.682-11.466,9.682-11.466C364.746,505.012,365.012,510.526,365.012,510.526z"/>
		<rect x="356.012" y="500.531" fill="#1D3144" width="2" height="58"/>
	</g>
</g>
<polygon fill="#F0513B" points="206.012,481.392 206.012,448.899 503.012,409.905 503.012,449.827 "/>
<polygon fill="#F0513B" points="273.694,680.064 281.806,181.607 183.569,209.764 149.601,691.205 "/>
<polyline fill="#F0513B" points="281.82,183.537 328.012,242.706 328.012,377.336 273.816,425.07 "/>
<line fill="none" stroke="#E9569F" stroke-miterlimit="10" x1="286.667" y1="28.161" x2="194.948" y2="58.37"/>
<polygon fill="#FFFFFF" points="196.495,57.962 198.825,29.214 214.012,24.404 214.012,34.296 225.012,31.232 225.012,20.193 
	229.012,19 229.012,9.224 254.012,0.42 254.012,10.791 262.012,8.437 262.012,18.626 271.974,15.629 272.502,5.07 287.996,0 
	287.209,28.161 "/>
<polygon fill="#F0513B" points="185.441,60.503 194.948,75.607 286.667,45.398 287.211,28.161 "/>
<path fill="#FFFFFF" d="M194.948,75.607l-3.04,35.802l27.552-7.248c0,0,0.552-21.955,19.78-28.554c0,0,10.837,2.473,11.517,19.482
	l34.651-13.163l1.258-36.528L194.948,75.607z"/>
<polygon fill="#F0513B" points="191.908,111.409 185.783,183.548 282.869,155.64 285.408,81.926 "/>
<path fill="#CB4E33" d="M216.186,173.72l2.885-67.211c0,0,0.874-25.51,20.329-30.975c0,0,10.613,1.185,11.613,19.555v69.267
	L216.186,173.72z"/>
<polygon fill="#FFFFFF" points="185.783,183.548 183.415,211.435 281.907,183.548 282.869,155.64 "/>
<g>
	<g>
		<g>
			<path fill="#A73F27" d="M231.874,207.426c13.52,0,24.002,11.851,23.403,26.458c-0.6,14.616-12.055,26.458-25.576,26.458
				c-13.529,0-24.003-11.842-23.403-26.458C206.898,219.277,218.345,207.426,231.874,207.426z"/>
		</g>
	</g>
</g>
<polygon fill="#F0513B" points="328.643,143.214 285.408,81.926 282.869,155.64 327.824,213.14 "/>
<polygon fill="#FFFFFF" points="328.643,213.537 282.869,155.64 281.806,184.588 328.329,243.608 "/>
<polygon fill="#FFFFFF" points="328.012,105.907 286.352,45.398 284.936,81.926 328.012,143.214 "/>
<path fill="#CB4E33" d="M306.19,91.366c0,0-6.178-0.284-8.178,13.553v70.407l16,19.738v-69.882
	C314.012,125.181,314.856,97.332,306.19,91.366z"/>
<polygon fill="#F0513B" points="328.012,88.117 286.896,28.161 285.802,45.398 328.012,106.648 "/>
<polygon fill="#FFFFFF" points="328.012,89.141 328.012,59.368 321.012,51.884 321.012,60.935 319.012,57.801 319.012,48.399 
	316.012,45.398 316.012,29.595 300.012,10.924 300.012,29.595 295.012,22.888 295.012,10.791 288.031,0 287.286,28.708 "/>
<polygon fill="#FFFFFF" points="199.491,416.419 207.012,406.503 207.012,378.342 227.012,373.7 227.012,381.127 236.012,379.27 
	236.012,386.531 246.012,386.531 246.012,377.414 267.012,373.7 267.012,380.199 278.012,379.27 278.012,370.915 298.012,366.892 
	298.012,377.414 309.012,376.176 309.012,367.201 321.012,363.178 321.012,355.133 331.012,351.868 331.012,341.207 
	358.012,336.914 358.012,348.634 371.012,348.308 371.012,355.133 381.012,355.159 381.012,363.488 393.012,362.194 
	393.012,351.419 416.012,346.883 416.012,358.846 430.012,356.853 430.012,344.92 454.012,341.899 454.012,353.276 468.012,350.8 
	468.012,336.531 474.012,336.531 474.012,330.995 503.012,324.808 503.012,372.772 "/>
<polygon fill="#F0513B" points="199.565,416.419 206.409,427.708 503.012,386.762 503.012,372.772 "/>
<polygon fill="#FFFFFF" points="206.012,427.546 206.012,448.899 503.012,409.905 503.012,386.697 "/>
<polyline fill="#FFFFFF" points="206.012,486.531 206.012,499.959 503.012,465.609 503.012,447.97 205.972,481.64 "/>
<g>
	<path fill="#9AD5D2" d="M226.012,479.135l19-2.647v-33.159c0,0,0.495-5.651-8.72-8.143c0,0-8.28,1.424-10.28,11.75V479.135z"/>
	<polygon fill="#1D3144" points="226.012,459.111 226.012,460.967 245.012,457.92 245.012,456.326 	"/>
	<path fill="#1D3144" d="M236.292,435.185c0,0-8.28,1.424-10.28,11.75v32.2l19-2.647v-33.159
		C245.012,443.328,245.508,437.678,236.292,435.185z M243.012,444.668v30.199l-15,2.411v-29.325c1-9.404,8.136-10.701,8.136-10.701
		C243.663,439.522,243.012,444.668,243.012,444.668z"/>
	<rect x="235.012" y="435.531" fill="#1D3144" width="2" height="41"/>
</g>
<g>
	<path fill="#FFFFFF" d="M224.799,525.531h-2.787v-2h0.93c0,0,1.022-8.536,12.069-11.698c0,0,10.454,1.215,13.027,10.66
		c0,0,3.16-10.58,14.189-12.875c0,0,9.722,0.914,11.336,9.914h1.131l0.127,2.793l-2.674-0.112L224.799,525.531z"/>
	<g>
		<path fill="#9AD5D2" d="M225.012,570.116l19-1.719V522.24c0,0,0.495-5.651-8.72-8.143c0,0-8.28,1.424-10.28,11.75V570.116z"/>
		<polygon fill="#1D3144" points="225.012,545.45 225.012,547.307 244.012,544.259 244.012,542.665 		"/>
		<path fill="#1D3144" d="M235.292,514.097c0,0-8.28,1.424-10.28,11.75v44.269l19-1.719V522.24
			C244.012,522.24,244.508,516.59,235.292,514.097z M242.012,523.58v43.196l-15,1.483v-41.394c1-9.404,8.136-10.701,8.136-10.701
			C242.663,518.434,242.012,523.58,242.012,523.58z"/>
		<rect x="234.012" y="514.531" fill="#1D3144" width="2" height="54"/>
	</g>
	<g>
		<path fill="#9AD5D2" d="M252.012,568.259l19-1.719v-46.157c0,0,0.495-5.651-8.72-8.143c0,0-8.28,1.424-10.28,11.75V568.259z"/>
		<polygon fill="#1D3144" points="252.012,543.593 252.012,545.45 271.012,542.403 271.012,540.808 		"/>
		<path fill="#1D3144" d="M262.292,512.241c0,0-8.28,1.424-10.28,11.75v44.269l19-1.719v-46.157
			C271.012,520.384,271.508,514.733,262.292,512.241z M269.012,521.723v43.196l-15,1.483v-41.394c1-9.404,8.136-10.701,8.136-10.701
			C269.663,516.577,269.012,521.723,269.012,521.723z"/>
		<rect x="261.012" y="512.531" fill="#1D3144" width="2" height="54"/>
	</g>
</g>
<g>
	<path fill="#FFFFFF" d="M426.641,503.531h-3.629v-3h1.516c0,0,1.163-9.317,13.733-12.915c0,0,11.895,1.58,14.824,12.328
		c0,0,3.595-12.061,16.146-14.672c0,0,11.063,1.26,12.899,11.26h1.287l0.144,3.299l-3.043-0.102L426.641,503.531z"/>
	<g>
		<path fill="#9AD5D2" d="M426.012,554.334l23-1.956v-52.523c0,0-0.126-6.43-10.612-9.266c0,0-9.388,1.621-12.388,13.37V554.334z"/>
		<polygon fill="#1D3144" points="426.012,526.265 426.012,528.378 449.012,524.911 449.012,523.096 		"/>
		<path fill="#1D3144" d="M438.4,490.589c0,0-9.388,1.621-12.388,13.37v50.374l23-1.956v-52.523
			C449.012,499.855,448.886,493.425,438.4,490.589z M447.012,501.38v49.154l-18,1.687v-47.103c2-10.701,9.724-12.177,9.724-12.177
			C447.288,495.524,447.012,501.38,447.012,501.38z"/>
		<rect x="437.012" y="491.531" fill="#1D3144" width="2" height="61"/>
	</g>
	<g>
		<path fill="#9AD5D2" d="M457.012,552.221l22-1.956v-52.523c0,0,0.374-6.43-10.112-9.266c0,0-8.888,1.621-11.888,13.37V552.221z"/>
		<polygon fill="#1D3144" points="457.012,524.153 457.012,526.265 479.012,522.798 479.012,520.983 		"/>
		<path fill="#1D3144" d="M468.9,488.476c0,0-8.888,1.621-11.888,13.37v50.374l22-1.956v-52.523
			C479.012,497.742,479.386,491.312,468.9,488.476z M477.012,499.267v49.154l-17,1.687v-47.103c2-10.701,9.224-12.177,9.224-12.177
			C477.788,493.411,477.012,499.267,477.012,499.267z"/>
		<rect x="468.012" y="489.531" fill="#1D3144" width="2" height="61"/>
	</g>
</g>
<g>
	<path fill="#9AD5D2" d="M255.012,476.35l20-2.647v-33.159c0,0-0.005-5.651-9.22-8.143c0,0-8.78,1.424-10.78,11.75V476.35z"/>
	<polygon fill="#1D3144" points="255.012,456.326 255.012,458.182 275.012,455.135 275.012,453.54 	"/>
	<path fill="#1D3144" d="M265.792,432.4c0,0-8.78,1.424-10.78,11.75v32.2l20-2.647v-33.159
		C275.012,440.543,275.008,434.893,265.792,432.4z M273.012,441.883v30.199l-16,2.411v-29.325c2-9.404,8.636-10.701,8.636-10.701
		C273.163,436.737,273.012,441.883,273.012,441.883z"/>
	<rect x="265.012" y="433.531" fill="#1D3144" width="2" height="40"/>
</g>
<g>
	<path fill="#9AD5D2" d="M319.012,468.923l19-2.647v-33.159c0,0,0.495-5.651-8.72-8.143c0,0-9.28,1.424-10.28,11.75V468.923z"/>
	<polygon fill="#1D3144" points="319.012,448.899 319.012,450.755 338.012,447.708 338.012,446.113 	"/>
	<path fill="#1D3144" d="M329.292,424.973c0,0-9.28,1.424-10.28,11.75v32.2l19-2.647v-33.159
		C338.012,433.116,338.508,427.466,329.292,424.973z M336.012,434.456v30.199l-16,2.411v-29.325c2-9.404,8.636-10.701,8.636-10.701
		C336.163,429.31,336.012,434.456,336.012,434.456z"/>
	<rect x="328.012" y="425.531" fill="#1D3144" width="2" height="41"/>
</g>
<g>
	<path fill="#9AD5D2" d="M351.012,465.209l20-2.647v-33.159c0,0-0.005-5.651-9.22-8.143c0,0-8.78,1.424-10.78,11.75V465.209z"/>
	<polygon fill="#1D3144" points="351.012,445.185 351.012,447.042 371.012,443.995 371.012,442.4 	"/>
	<path fill="#1D3144" d="M361.792,421.26c0,0-8.78,1.424-10.78,11.75v32.2l20-2.647v-33.159
		C371.012,429.403,371.008,423.752,361.792,421.26z M369.012,430.742v30.199l-16,2.411v-29.325c1-9.404,8.636-10.701,8.636-10.701
		C369.163,425.596,369.012,430.742,369.012,430.742z"/>
	<rect x="360.012" y="421.531" fill="#1D3144" width="2" height="41"/>
</g>
<g>
	<path fill="#9AD5D2" d="M423.012,456.854l19-2.647v-33.159c0,0,0.495-5.651-8.72-8.143c0,0-9.28,1.424-10.28,11.75V456.854z"/>
	<polygon fill="#1D3144" points="423.012,436.83 423.012,438.686 442.012,435.639 442.012,434.045 	"/>
	<path fill="#1D3144" d="M433.292,412.904c0,0-9.28,1.424-10.28,11.75v32.2l19-2.647v-33.159
		C442.012,421.047,442.508,415.397,433.292,412.904z M440.012,422.387v30.199l-16,2.411v-29.325c2-9.404,8.636-10.701,8.636-10.701
		C440.163,417.241,440.012,422.387,440.012,422.387z"/>
	<rect x="432.012" y="413.531" fill="#1D3144" width="2" height="41"/>
</g>
<g>
	<path fill="#9AD5D2" d="M455.012,453.14l20-2.647v-33.159c0,0-0.005-5.651-9.22-8.143c0,0-8.78,1.424-10.78,11.75V453.14z"/>
	<polygon fill="#1D3144" points="455.012,433.116 455.012,434.973 475.012,431.926 475.012,430.331 	"/>
	<path fill="#1D3144" d="M465.792,409.191c0,0-8.78,1.424-10.78,11.75v32.2l20-2.647v-33.159
		C475.012,417.334,475.008,411.683,465.792,409.191z M473.012,418.674v30.199l-16,2.411v-29.325c1-9.404,8.636-10.701,8.636-10.701
		C473.163,413.527,473.012,418.674,473.012,418.674z"/>
	<rect x="464.012" y="409.531" fill="#1D3144" width="2" height="41"/>
</g>
<polyline fill="#FFFFFF" points="281.012,621.531 281.806,703.531 301.346,703.531 294.012,621.577 293.698,600.125 
	293.499,580.531 298.141,580.531 287.929,547.109 277.717,580.531 281.012,580.531 "/>
<polygon fill="#FFFFFF" points="387.265,575.531 377.053,542.109 366.841,575.531 371.012,575.531 371.012,594.531 370.93,594.531 
	360.012,616.935 360.012,675.531 373.012,675.531 373.012,616.935 382.866,594.84 382.623,575.531 "/>
<polygon fill="#FFFFFF" points="283.47,608.579 332.798,528.378 381.358,605.107 "/>
<path fill="#F0513B" d="M339.837,553.124c-0.926-0.926-2.202-1.281-3.403-1.08c0.201-1.201-0.153-2.477-1.08-3.403
	c-1.522-1.522-3.99-1.522-5.512,0c-0.926,0.926-1.281,2.202-1.08,3.403c-1.201-0.201-2.477,0.153-3.403,1.08
	c-1.522,1.522-1.522,3.99,0,5.512c0.926,0.926,2.202,1.281,3.403,1.08c-0.201,1.201,0.153,2.477,1.08,3.403
	c1.522,1.522,3.99,1.522,5.512,0c0.926-0.926,1.281-2.202,1.08-3.403c1.201,0.201,2.477-0.153,3.403-1.08
	C341.359,557.114,341.359,554.647,339.837,553.124z"/>
<path fill="#F0513B" d="M323.148,565.271c0-1.65-1.338-2.988-2.988-2.988c-0.851,0-1.615,0.36-2.159,0.931l-0.001-0.001
	l-0.003,0.007c-0.419,0.442-0.696,1.011-0.783,1.643l-3.985,8.361l8.284-5.302C322.479,567.427,323.148,566.432,323.148,565.271z"/>
<polygon fill="#FFFFFF" points="372.411,601.531 284.216,601.531 294.428,680.253 378.91,675.706 "/>
<path fill="#F0513B" d="M342.007,564.342c0-1.65,1.338-2.988,2.988-2.988c0.851,0,1.615,0.36,2.159,0.931l0.001-0.001l0.003,0.007
	c0.419,0.442,0.696,1.011,0.783,1.643l3.985,8.361l-8.284-5.302C342.676,566.499,342.007,565.504,342.007,564.342z"/>
<polygon fill="#FFFFFF" points="383.029,594.654 382.623,703.423 365.913,703.531 367.918,604.998 "/>
<polygon fill="#F0513B" points="167.012,489.704 6.012,510.893 6.012,539.285 167.012,522.133 "/>
<g>
	<path fill="#9AD5D2" d="M48.012,534.88l18-2.313v-28.975c0,0-0.266-4.938-8.318-7.115c0,0-7.682,1.244-9.682,10.267V534.88z"/>
	<polygon fill="#1D3144" points="48.012,517.383 48.012,519.005 66.012,516.342 66.012,514.949 	"/>
	<path fill="#1D3144" d="M57.694,496.477c0,0-7.682,1.244-9.682,10.267v28.136l18-2.313v-28.975
		C66.012,503.592,65.746,498.654,57.694,496.477z M64.012,504.763v26.388l-14,2.107v-25.624c2-8.217,7.556-9.35,7.556-9.35
		C64.135,500.266,64.012,504.763,64.012,504.763z"/>
	<rect x="57.012" y="497.531" fill="#1D3144" width="2" height="35"/>
</g>
<g>
	<path fill="#9AD5D2" d="M104.012,528.39l17-2.313v-28.975c0,0,0.234-4.938-7.818-7.115c0,0-7.182,1.244-9.182,10.267V528.39z"/>
	<polygon fill="#1D3144" points="104.012,510.893 104.012,512.515 121.012,509.853 121.012,508.459 	"/>
	<path fill="#1D3144" d="M113.194,489.987c0,0-7.182,1.244-9.182,10.267v28.136l17-2.313v-28.975
		C121.012,497.102,121.246,492.165,113.194,489.987z M119.012,498.273v26.388l-13,2.107v-25.624c1-8.217,7.056-9.35,7.056-9.35
		C119.635,493.776,119.012,498.273,119.012,498.273z"/>
	<rect x="112.012" y="490.531" fill="#1D3144" width="1" height="35"/>
</g>
<g>
	<path fill="#9AD5D2" d="M132.012,525.145l18-2.313v-28.975c0,0-0.266-4.938-8.318-7.115c0,0-7.682,1.245-9.682,10.267V525.145z"/>
	<polygon fill="#1D3144" points="132.012,507.648 132.012,509.27 150.012,506.608 150.012,505.214 	"/>
	<path fill="#1D3144" d="M141.694,486.742c0,0-7.682,1.244-9.682,10.267v28.136l18-2.313v-28.975
		C150.012,493.857,149.746,488.92,141.694,486.742z M148.012,495.028v26.388l-14,2.107v-25.624c2-8.217,7.556-9.35,7.556-9.35
		C148.135,490.531,148.012,495.028,148.012,495.028z"/>
	<rect x="140.012" y="486.531" fill="#1D3144" width="2" height="37"/>
</g>
<polygon fill="#F0513B" points="167.012,536.844 6.012,555.51 6.012,703.593 167.012,690.981 "/>
<polygon fill="#FFFFFF" points="167.012,521.124 6.012,539.285 6.012,543.341 6.012,555.51 167.012,536.844 "/>
<polygon fill="#FFFFFF" points="167.012,435.304 158.012,436.261 158.012,428.984 151.012,428.96 151.012,422.997 138.012,423.282 
	138.012,413.041 114.012,416.792 114.012,426.108 106.012,428.96 106.012,435.991 96.012,439.506 96.012,447.348 86.012,448.429 
	86.012,439.236 68.012,442.751 68.012,450.052 60.012,450.863 60.012,445.184 41.012,448.429 41.012,456.531 32.012,456.531 
	32.012,450.052 23.012,451.674 23.012,445.184 7.012,449.241 7.012,473.847 0.196,482.512 167.012,458.485 "/>
<polygon fill="#F0513B" points="167.012,458.485 0,482.512 5.989,492.377 167.012,470.145 "/>
<polygon fill="#FFFFFF" points="503.31,324.544 520.92,331.643 520.079,337.953 534.592,345.525 534.171,351.204 554.373,357.724 
	555.033,352.677 566.012,355.621 566.012,347.706 572.012,347.753 572.012,386.697 503.312,372.772 "/>
<polygon fill="#F0513B" points="572.012,386.697 572.012,397.838 503.012,386.697 503.012,372.772 "/>
<polygon fill="#FFFFFF" points="503.012,409.905 572.012,421.26 572.012,397.838 503.012,386.697 "/>
<polygon fill="#F0513B" points="503.012,447.969 572.012,459.323 572.012,421.047 503.012,409.907 "/>
<polygon fill="#F0513B" points="503.012,664.281 572.012,636.431 572.012,476.75 503.012,465.609 "/>
<polygon fill="#FFFFFF" points="503.012,465.608 572.012,476.962 572.012,459.111 503.012,447.97 "/>
<path fill="#FFFFFF" d="M226.34,235.065l2.209-22.499l2.234,22.499c0,0-0.893,1.187-2.222,0.895
	C227.234,235.667,226.34,235.065,226.34,235.065z"/>
<path fill="#FFFFFF" d="M229.021,232.973l17.571,14.225l-20.016-10.515c0,0-0.499-1.399,0.476-2.347
	C228.026,233.388,229.021,232.973,229.021,232.973z"/>
<polygon fill="#F0513B" points="572.012,636.531 572.012,671.531 502.012,703.531 501.943,659.714 "/>
<path fill="#CB4E33" d="M297.012,703.531h71v-82.289c0,0-7.729-40.447-35.299-52.125c0,0-27.701,10.294-35.701,50.958V703.531z"/>
</svg>
