<?xml version="1.0" encoding="utf-8"?>
<!-- Generator: Adobe Illustrator 17.0.0, SVG Export Plug-In . SVG Version: 6.00 Build 0)  -->
<!DOCTYPE svg PUBLIC "-//W3C//DTD SVG 1.1//EN" "http://www.w3.org/Graphics/SVG/1.1/DTD/svg11.dtd">
<svg version="1.1" id="Layer_1" xmlns="http://www.w3.org/2000/svg" xmlns:xlink="http://www.w3.org/1999/xlink" x="0px" y="0px"
	 width="365.899px" height="161.798px" viewBox="0 0 365.899 161.798" enable-background="new 0 0 365.899 161.798"
	 xml:space="preserve">
<path fill="#1D3144" d="M349.924,117.88H187.235V17.913c0-3.879,3.145-7.024,7.024-7.024H342.9c3.879,0,7.024,3.145,7.024,7.024
	V117.88z"/>
<polygon fill="#1D3144" points="349.924,117.88 187.235,117.88 171.259,150.276 365.899,150.276 "/>
<rect x="195.691" y="19.676" fill="#99D5D2" width="145.777" height="90.569"/>
<path fill="#1D3144" d="M363.368,156.067H173.79c-1.398,0-2.531-1.133-2.531-2.531v-3.26h194.64v3.26
	C365.899,154.934,364.766,156.067,363.368,156.067z"/>
<circle fill="#FFFFFF" cx="268.579" cy="15.483" r="1.997"/>
<path fill="#FFFFFF" d="M285.179,145.464l-1.277-7.876c-0.102-0.629-0.645-1.091-1.282-1.091h-28.082
	c-0.637,0-1.18,0.462-1.282,1.091l-1.277,7.876c-0.128,0.79,0.482,1.507,1.282,1.507h30.635
	C284.697,146.971,285.307,146.254,285.179,145.464z"/>
<path fill="#FFFFFF" d="M348.642,131.285l-4.587-9.084c-0.307-0.607-0.929-0.991-1.61-0.991H194.713
	c-0.681,0-1.303,0.383-1.61,0.991l-4.587,9.084c-0.606,1.199,0.266,2.616,1.61,2.616h156.905
	C348.376,133.901,349.247,132.484,348.642,131.285z"/>
<g>
	<g>
		<defs>
			<rect id="SVGID_1_" x="-12.188" y="-8.113" width="179.287" height="179.287"/>
		</defs>
		<clipPath id="SVGID_2_">
			<use xlink:href="#SVGID_1_"  overflow="visible"/>
		</clipPath>
		<g clip-path="url(#SVGID_2_)">
			<defs>
				<rect id="SVGID_3_" x="-12.188" y="-8.113" width="179.287" height="179.287"/>
			</defs>
			<clipPath id="SVGID_4_">
				<use xlink:href="#SVGID_3_"  overflow="visible"/>
			</clipPath>
			<path clip-path="url(#SVGID_4_)" fill="#A97C50" d="M144.763,106.583c8.811,26.619-0.543,47.936-31.199,47.936
				c-32.257,0-38.307-20.912-30.83-47.936C90.507,78.488,113.64,70.54,113.64,70.54S135.462,78.488,144.763,106.583"/>
			<path clip-path="url(#SVGID_4_)" fill="#FFFFFF" d="M137.809,106.874c6.758,20.934,8.442,42.49-24.194,42.49
				s-30.824-21.426-24.484-42.49c5.607-18.629,17.558-32.218,24.462-32.568C120.169,73.973,130.744,84.99,137.809,106.874"/>
			<path clip-path="url(#SVGID_4_)" fill="#A97C50" d="M81.326,27.012c0,0-2.331-18.89-0.542-23.172
				c0.646-1.547,3.692-3.125,6.299-2.229c4.209,1.446,10.982,15.774,10.982,15.774L81.326,27.012z"/>
			<path clip-path="url(#SVGID_4_)" d="M83.915,23.163V11.637c0,0,0.58-3.113,2.248-3.504c1.667-0.39,8.147,8.74,8.147,8.74
				L83.915,23.163z"/>
			<path clip-path="url(#SVGID_4_)" fill="#A97C50" d="M145.646,27.012c0,0,2.331-18.89,0.542-23.172
				c-0.646-1.547-3.692-3.125-6.299-2.229c-4.209,1.446-10.982,15.774-10.982,15.774L145.646,27.012z"/>
			<path clip-path="url(#SVGID_4_)" d="M143.057,23.163V11.637c0,0-0.58-3.113-2.247-3.504c-1.667-0.39-8.148,8.74-8.148,8.74
				L143.057,23.163z"/>
			<path clip-path="url(#SVGID_4_)" fill="#A97C50" d="M154.09,57.739c0,24.651-24.32,39.08-41.45,39.08
				c-18.113,0-39.45-14.429-39.45-39.08c0-31.46,9.971-46.832,40.108-46.832C142.344,10.907,154.09,26.28,154.09,57.739"/>
			<path clip-path="url(#SVGID_4_)" fill="#C49A6C" d="M85.91,86.332c7.627,6.81,17.588,10.487,26.73,10.487
				c8.986,0,19.948-3.972,28.342-11.305c-3.019-7.069-14.132-12.314-27.381-12.314C99.623,73.199,88.136,78.672,85.91,86.332
				C85.946,86.209,85.87,86.453,85.91,86.332"/>
			<path clip-path="url(#SVGID_4_)" d="M118.029,73.199l-4.443-0.216l-4.443,0.216c-2.378,0-2.452,1.491-2.452,1.491v1.617
				c0-0.866-0.328,5.725,6.894,7.143c0,0,6.895-1.828,6.895-7.377V74.69C120.481,74.69,120.406,73.199,118.029,73.199"/>
			
				<path clip-path="url(#SVGID_4_)" fill="none" stroke="#000000" stroke-width="4" stroke-linecap="round" stroke-miterlimit="10" d="
				M113.712,82.215c0,3.725,5.002,6.739,10.004,4.177"/>
			<path clip-path="url(#SVGID_4_)" fill="#A97C50" d="M81.9,107.89c-6.371,4.649-1.918,10.108,2.612,13.08
				c4.845,3.179,11.913,5.438,17.667,2.536c2.584-1.303,5.491-6.769,1.686-8.454c-1.85-0.82-3.991,0.175-5.916,0.234
				c-4.736,0.146-7.049,0.86-10.003-3.159C86.435,110.071,85.303,106.719,81.9,107.89"/>
			<path clip-path="url(#SVGID_4_)" fill="#A97C50" d="M125.915,153.004c0,0,8.065,8.661,12.502,5.907
				c4.437-2.754-5.398-9.326-5.398-9.326L125.915,153.004z"/>
			<path clip-path="url(#SVGID_4_)" fill="#A97C50" d="M100.47,153.004c0,0-8.065,8.661-12.502,5.907
				c-4.437-2.754,5.398-9.326,5.398-9.326L100.47,153.004z"/>
			<path clip-path="url(#SVGID_4_)" fill="#FFFFFF" d="M36.184,85.584c0,0-12.437,1.76-15.253-7.096
				c-2.816-8.856,10.05-12.292,10.05-12.292l-5.572-8.699L10.033,71.611l4.329,15.445l8.062,4.927l8.062-0.896L36.184,85.584z"/>
			<path clip-path="url(#SVGID_4_)" fill="#A97C50" d="M79.86,124.959c0,0-8.133-1.566-10.763-9.454
				c-2.629-7.887-1.577-29.922-1.577-29.922s1.577-19.682-1.051-30.724c0,0-0.176,4.924-1.227,5.091c0,0-1.402-16.484-9.114-21.041
				c0,0,1.665,2.225,1.46,3.249c0,0-6.828-8.808-19.393-9.901c-12.564-1.093-24.473,8.398-24.473,8.398s-8.986,8.4-12.811,24.174
				c0,0,1.434-2.527,2.732-2.868c0,0-2.732,9.833,0.478,17.89c0,0-0.478-2.8,0.683-4.439c0,0,1.912,18.164,15.842,20.349
				s15.539-10.177,15.539-10.177s-4.644,4.917-11.193,3.262c-6.549-1.655-8.826-9.64-8.826-9.64s-1.394-7.273,3.213-10.799
				c4.606-3.527,11.604-2.211,11.604-2.211s7.267,1.244,11.786,10.197c3.497,6.928,3.598,13.605,3.598,17.707
				c0,0-1.799-1.871-2.159-3.238c0,0-2.087,11.155,5.973,23.606c0,0-1.511-0.072-3.886-3.095c0,0,1.367,7.916,8.348,14.034
				c0,0-3.454-1.37-4.75-2.808c0,0,5.469,10.437,16.193,16.914c10.724,6.477,19.323,2.807,19.323,2.807L79.86,124.959z"/>
			<path clip-path="url(#SVGID_4_)" fill="#FFFFFF" d="M47.848,59.687c11.196,12.976,6.388,33.303,7.799,46.461
				c1.31,12.215,2.803,22.871,12.541,29.716c4.454,3.131,10.222,4.513,15.633,4.222c-1.205-2.84-2.409-5.679-3.613-8.519
				c0,0-4.531-0.297-6.799-1.467c-10.096-5.206-11.781-17.273-13.235-26.648C57.923,88.953,58.755,72.328,47.848,59.687"/>
			<path clip-path="url(#SVGID_4_)" fill="#FFFFFF" d="M89.539,59.316c0-6.592,0-18.684,8.836-18.684
				c8.836,0,8.836,12.092,8.836,18.684H89.539z"/>
			<path clip-path="url(#SVGID_4_)" fill="#C49A6C" d="M105.372,52.748c0,2.964-2.403,5.367-5.367,5.367
				c-2.964,0-5.367-2.403-5.367-5.367c0-2.964,2.403-5.367,5.367-5.367C102.969,47.38,105.372,49.784,105.372,52.748"/>
			<path clip-path="url(#SVGID_4_)" d="M103.693,52.748c0,2.037-1.652,3.689-3.689,3.689c-2.037,0-3.688-1.652-3.688-3.689
				c0-2.037,1.651-3.689,3.688-3.689C102.042,49.059,103.693,50.711,103.693,52.748"/>
			<path clip-path="url(#SVGID_4_)" fill="#FFFFFF" d="M102.009,51.33c0,0.457-0.37,0.827-0.827,0.827s-0.827-0.37-0.827-0.827
				c0-0.457,0.37-0.827,0.827-0.827S102.009,50.873,102.009,51.33"/>
			<path clip-path="url(#SVGID_4_)" fill="#FFFFFF" d="M120.404,59.316c0-6.617,0-18.754,8.869-18.754
				c8.869,0,8.869,12.137,8.869,18.754H120.404z"/>
			<path clip-path="url(#SVGID_4_)" fill="#C49A6C" d="M133.065,52.748c0,2.964-2.403,5.367-5.367,5.367
				c-2.964,0-5.367-2.403-5.367-5.367c0-2.964,2.403-5.367,5.367-5.367C130.662,47.38,133.065,49.784,133.065,52.748"/>
			<path clip-path="url(#SVGID_4_)" d="M131.386,52.748c0,2.037-1.652,3.689-3.689,3.689s-3.688-1.652-3.688-3.689
				c0-2.037,1.651-3.689,3.688-3.689S131.386,50.711,131.386,52.748"/>
			<path clip-path="url(#SVGID_4_)" fill="#FFFFFF" d="M129.702,51.33c0,0.457-0.37,0.827-0.827,0.827
				c-0.457,0-0.827-0.37-0.827-0.827c0-0.457,0.37-0.827,0.827-0.827C129.331,50.503,129.702,50.873,129.702,51.33"/>
			<path clip-path="url(#SVGID_4_)" fill="#A97C50" d="M145.642,107.89c6.371,4.649,1.918,10.108-2.612,13.08
				c-4.845,3.179-11.913,5.438-17.667,2.536c-2.584-1.303-5.491-6.769-1.686-8.454c1.85-0.82,3.991,0.175,5.916,0.234
				c4.736,0.146,7.049,0.86,10.003-3.159C141.107,110.071,142.239,106.719,145.642,107.89"/>
			
				<path clip-path="url(#SVGID_4_)" fill="none" stroke="#000000" stroke-width="4" stroke-linecap="round" stroke-miterlimit="10" d="
				M113.363,82.215c0,3.725-5.002,6.739-10.004,4.177"/>
		</g>
	</g>
</g>
<text transform="matrix(1 0 0 1 202.6908 82.1377)" fill="#1D3144" font-family="'SofiaProCondensedSemiBold'" font-size="38.0212">THANKS!</text>
</svg>
