<?xml version="1.0" encoding="utf-8"?>
<!-- Generator: Adobe Illustrator 17.0.0, SVG Export Plug-In . SVG Version: 6.00 Build 0)  -->
<!DOCTYPE svg PUBLIC "-//W3C//DTD SVG 1.1//EN" "http://www.w3.org/Graphics/SVG/1.1/DTD/svg11.dtd">
<svg version="1.1" id="Layer_1" xmlns="http://www.w3.org/2000/svg" xmlns:xlink="http://www.w3.org/1999/xlink" x="0px" y="0px"
	 width="153.769px" height="144.168px" viewBox="0 0 153.769 144.168" enable-background="new 0 0 153.769 144.168"
	 xml:space="preserve">
<g>
	<path fill="#A97C50" d="M145.321,101.766c-1.41-42.034-28.492-48.69-28.492-48.69h-5.053h-0.261h-5.052
		c0,0-27.082,6.657-28.493,48.69c-1.361,40.562,31.352,35.788,33.676,35.906C113.986,137.505,146.682,142.328,145.321,101.766z"/>
	<path fill="#F0D0A4" d="M137.419,110.296c0,19.448-11.54,24.672-25.774,24.672c-14.235,0-25.773-5.224-25.773-24.672
		c0-19.45,11.538-35.217,25.773-35.217C125.879,75.079,137.419,90.846,137.419,110.296z"/>
	<path fill="#C49A6C" d="M83.98,70.626"/>
	<path fill="#C49A6C" d="M83.838,71.519"/>
	<path fill="#C49A6C" d="M83.909,70.999"/>
	<path fill="#A97C50" d="M84.57,76.767c-6.317,4.609-1.902,10.021,2.59,12.968c4.804,3.151,11.811,5.392,17.516,2.515
		c2.563-1.292,5.444-6.711,1.672-8.382c-1.835-0.813-3.957,0.173-5.866,0.232c-4.696,0.145-6.989,0.853-9.917-3.132
		C89.067,78.93,87.944,75.606,84.57,76.767z"/>
	<path fill="#FFFFFF" d="M34.974,68.789c0,0-12.331,1.745-15.123-7.036s9.965-12.188,9.965-12.188l-5.524-8.625L9.046,54.935
		l4.293,15.314l7.993,4.885l7.993-0.888L34.974,68.789z"/>
	<path fill="#A97C50" d="M78.277,107.828c0,0-8.064-1.553-10.671-9.373s-1.564-29.666-1.564-29.666s1.564-19.514-1.043-30.462
		c0,0-0.174,4.882-1.217,5.048c0,0-1.39-16.344-9.037-20.862c0,0,1.65,2.206,1.447,3.221c0,0-6.77-8.734-19.227-9.817
		s-24.264,8.327-24.264,8.327S3.791,32.572,0,48.211c0,0,1.422-2.505,2.708-2.844c0,0-2.708,9.749,0.474,17.738
		c0,0-0.474-2.776,0.677-4.401c0,0,1.896,18.008,15.707,20.175c13.811,2.166,15.407-10.09,15.407-10.09s-4.604,4.875-11.098,3.234
		c-6.493-1.641-8.75-9.557-8.75-9.557s-1.382-7.211,3.185-10.707s11.505-2.192,11.505-2.192s7.205,1.233,11.686,10.11
		c3.467,6.869,3.568,13.489,3.568,17.556c0,0-1.784-1.855-2.141-3.211c0,0-2.069,11.06,5.922,23.404c0,0-1.499-0.071-3.853-3.068
		c0,0,1.356,7.849,8.277,13.914c0,0-3.425-1.358-4.709-2.784c0,0,5.423,10.348,16.055,16.77s19.158,2.783,19.158,2.783
		L78.277,107.828z"/>
	<path fill="#F0D0A4" d="M46.538,43.113c11.101,12.865,6.333,33.019,7.732,46.065c1.299,12.111,2.779,22.676,12.433,29.462
		c4.416,3.104,10.136,4.474,15.5,4.186c-1.194-2.815-2.388-5.631-3.583-8.446c0,0-4.492-0.294-6.741-1.454
		c-10.01-5.161-11.68-17.126-13.123-26.421C56.528,72.13,57.353,55.646,46.538,43.113z"/>
	<path fill="#A97C50" d="M138.397,77.022c6.317,4.609,1.902,10.021-2.59,12.968c-4.804,3.151-11.811,5.392-17.516,2.515
		c-2.563-1.292-5.444-6.711-1.672-8.382c1.835-0.813,3.957,0.173,5.866,0.232c4.696,0.145,6.989,0.853,9.917-3.132
		C133.901,79.184,135.023,75.86,138.397,77.022z"/>
	<path fill="#A97C50" d="M87.898,19.104c0,0-1.735-14.062-0.404-17.25c0.481-1.151,2.748-2.327,4.689-1.66
		c3.133,1.077,8.175,11.743,8.175,11.743L87.898,19.104z"/>
	<path d="M89.825,16.238v-8.58c0,0,0.432-2.318,1.673-2.608c1.241-0.29,6.065,6.506,6.065,6.506L89.825,16.238z"/>
	<path fill="#A97C50" d="M135.778,19.104c0,0,1.735-14.062,0.404-17.25c-0.481-1.151-2.748-2.327-4.689-1.66
		c-3.133,1.077-8.175,11.743-8.175,11.743L135.778,19.104z"/>
	<path d="M133.851,16.238v-8.58c0,0-0.432-2.318-1.673-2.608s-6.065,6.506-6.065,6.506L133.851,16.238z"/>
	<path fill="#A97C50" d="M142.064,41.978c0,18.351-18.104,29.091-30.856,29.091c-13.483,0-29.367-10.741-29.367-29.091
		c0-23.419,7.422-34.863,29.857-34.863C133.32,7.115,142.064,18.559,142.064,41.978z"/>
	<path fill="#C49A6C" d="M132.306,62.653"/>
	<path fill="#F0D0A4" d="M91.31,63.262c5.677,5.069,13.093,7.807,19.898,7.807c6.689,0,14.849-2.957,21.098-8.415
		c-2.248-5.262-10.52-9.167-20.383-9.167C101.518,53.486,92.967,57.56,91.31,63.262C91.337,63.171,91.281,63.352,91.31,63.262z"/>
	<path d="M115.22,53.486l-3.307-0.16l-3.307,0.16c-1.77,0-1.825,1.11-1.825,1.11V55.8c0-0.645-0.244,4.262,5.132,5.317
		c0,0,5.132-1.361,5.132-5.491v-1.03C117.045,54.596,116.99,53.486,115.22,53.486z"/>
	<path d="M116.612,64.635c-1.078,0-2.122-0.279-3.033-0.836c-1.371-0.838-2.189-2.185-2.189-3.601c0-0.341,0.276-0.617,0.617-0.617
		c0.341,0,0.617,0.276,0.617,0.617c0,0.983,0.598,1.936,1.599,2.548c1.419,0.868,3.27,0.872,4.95,0.012
		c0.303-0.155,0.675-0.035,0.831,0.268c0.155,0.303,0.035,0.675-0.268,0.831C118.721,64.375,117.651,64.635,116.612,64.635z"/>
	<path fill="#FFFFFF" d="M94.012,43.151c0-4.536,0-12.858,6.578-12.858s6.578,8.322,6.578,12.858H94.012z"/>
	<circle fill="#9AD7D4" cx="101.381" cy="38.416" r="4.188"/>
	<circle cx="101.381" cy="38.416" r="2.878"/>
	<circle fill="#FFFFFF" cx="102.299" cy="37.31" r="0.646"/>
	<path fill="#FFFFFF" d="M116.988,43.151c0-4.554,0-12.906,6.602-12.906c6.602,0,6.602,8.353,6.602,12.906H116.988z"/>
	<circle fill="#9AD7D4" cx="122.686" cy="38.416" r="4.188"/>
	<circle cx="122.686" cy="38.416" r="2.878"/>
	<circle fill="#FFFFFF" cx="123.604" cy="37.31" r="0.646"/>
	<path d="M107.141,64.635c-1.039,0-2.109-0.259-3.123-0.778c-0.303-0.155-0.423-0.527-0.268-0.831
		c0.155-0.304,0.526-0.424,0.831-0.268c1.68,0.86,3.53,0.855,4.949-0.012c1.001-0.612,1.599-1.565,1.599-2.548
		c0-0.341,0.276-0.617,0.617-0.617c0.341,0,0.617,0.276,0.617,0.617c0,1.417-0.819,2.763-2.19,3.601
		C109.263,64.356,108.219,64.635,107.141,64.635z"/>
	<g>
		<g>
			<g>
				<path fill="#A97C50" d="M111.953,54.201"/>
			</g>
		</g>
	</g>
	<g>
		<path fill="#A97C50" d="M96.618,105.077c0,0-3.101-17.684-16.08-14.878c-16.965,3.667-12.695,28.211,1.693,43.444
			c0,0-9.31,4.148-7.335,9.027c1.974,4.879,22.717-3.386,22.53-7.334c0,0,0.039-2.822-1.654-2.54
			C94.079,133.078,103.036,123.827,96.618,105.077z"/>
		<path fill="#A97C50" d="M126.673,105.077c0,0,3.1-17.684,16.08-14.878c16.965,3.667,12.695,28.211-1.692,43.444
			c0,0,9.309,4.148,7.334,9.027c-1.974,4.879-22.718-3.386-22.53-7.334c0,0-0.039-2.822,1.654-2.54
			C129.211,133.078,120.255,123.827,126.673,105.077z"/>
	</g>
</g>
</svg>
