<?xml version="1.0" encoding="utf-8"?>
<!-- Generator: Adobe Illustrator 17.0.0, SVG Export Plug-In . SVG Version: 6.00 Build 0)  -->
<!DOCTYPE svg PUBLIC "-//W3C//DTD SVG 1.1//EN" "http://www.w3.org/Graphics/SVG/1.1/DTD/svg11.dtd">
<svg version="1.1" id="Layer_1" xmlns="http://www.w3.org/2000/svg" xmlns:xlink="http://www.w3.org/1999/xlink" x="0px" y="0px"
	 width="576px" height="576px" viewBox="0 0 576 576" enable-background="new 0 0 576 576" xml:space="preserve">
<path fill="#A97C50" d="M504.239,368.486c28.309,85.52-1.745,154.005-100.235,154.005c-103.632,0-123.071-67.183-99.048-154.005
	c24.976-90.263,99.295-115.795,99.295-115.795S474.36,278.223,504.239,368.486z"/>
<path fill="#FFFFFF" d="M481.898,369.42c21.711,67.255,27.123,136.51-77.728,136.51s-99.028-68.837-78.659-136.51
	c18.014-59.849,56.409-103.508,78.59-104.631C425.226,263.719,459.203,299.112,481.898,369.42z"/>
<path fill="#A97C50" d="M300.435,112.845c0,0-7.489-60.69-1.742-74.446c2.076-4.97,11.862-10.041,20.237-7.163
	c13.52,4.648,35.281,50.68,35.281,50.68L300.435,112.845z"/>
<path d="M308.753,100.479V63.45c0,0,1.864-10.002,7.221-11.256c5.357-1.254,26.176,28.078,26.176,28.078L308.753,100.479z"/>
<path fill="#A97C50" d="M507.077,112.845c0,0,7.489-60.69,1.742-74.446c-2.076-4.97-11.862-10.041-20.237-7.163
	c-13.52,4.648-35.281,50.68-35.281,50.68L507.077,112.845z"/>
<path d="M498.759,100.479V63.45c0,0-1.864-10.002-7.22-11.256c-5.357-1.254-26.176,28.078-26.176,28.078L498.759,100.479z"/>
<path fill="#A97C50" d="M534.205,211.564c0,79.197-78.133,125.552-133.168,125.552c-58.192,0-126.741-46.355-126.741-125.552
	c0-101.071,32.034-150.46,128.857-150.46C496.468,61.104,534.205,110.493,534.205,211.564z"/>
<g>
	<path fill="#C49A6C" d="M492.092,300.797"/>
	<path fill="#C49A6C" d="M315.162,303.424c24.502,21.879,56.505,33.692,85.875,33.692c28.868,0,64.086-12.761,91.055-36.319
		c-9.7-22.711-45.401-39.564-87.967-39.564C359.216,261.233,322.313,278.816,315.162,303.424
		C315.277,303.03,315.033,303.814,315.162,303.424z"/>
	<path fill="#C49A6C" d="M314.203,306.973"/>
	<path fill="#C49A6C" d="M313.743,309.867"/>
	<path fill="#C49A6C" d="M313.975,308.181"/>
</g>
<path d="M418.351,261.233l-14.274-0.693l-14.274,0.693c-7.638,0-7.877,4.79-7.877,4.79v5.195c0-2.784-1.055,18.392,22.151,22.948
	c0,0,22.151-5.874,22.151-23.699v-4.444C426.228,266.023,425.989,261.233,418.351,261.233z"/>
<path fill="none" stroke="#000000" stroke-width="4" stroke-linecap="round" stroke-miterlimit="10" d="M404.482,290.197
	c0,11.966,16.07,21.65,32.139,13.421"/>
<path fill="#A97C50" d="M302.279,372.685c-20.468,14.935-6.163,32.473,8.393,42.022c15.566,10.212,38.273,17.472,56.759,8.149
	c8.304-4.188,17.642-21.747,5.417-27.161c-5.946-2.633-12.821,0.562-19.007,0.753c-15.216,0.47-22.646,2.764-32.136-10.149
	C316.849,379.693,313.211,368.922,302.279,372.685z"/>
<path fill="#A97C50" d="M443.687,517.625c0,0,25.912,27.826,40.167,18.978c14.254-8.848-17.34-29.963-17.34-29.963L443.687,517.625z
	"/>
<path fill="#A97C50" d="M361.94,517.625c0,0-25.912,27.826-40.167,18.978c-14.254-8.848,17.34-29.963,17.34-29.963L361.94,517.625z"
	/>
<path fill="#FFFFFF" d="M155.407,301.022c0,0-39.956,5.654-49.003-22.798c-9.047-28.453,32.289-39.492,32.289-39.492l-17.899-27.948
	l-49.404,45.348l13.91,49.622l25.901,15.828l25.901-2.878L155.407,301.022z"/>
<path fill="#A97C50" d="M295.723,427.523c0,0-26.13-5.031-34.577-30.372s-5.068-96.13-5.068-96.13s5.068-63.233-3.379-98.709
	c0,0-0.563,15.819-3.942,16.356c0,0-4.505-52.959-29.282-67.6c0,0,5.348,7.147,4.69,10.438c0,0-21.938-28.3-62.303-31.81
	s-78.624,26.981-78.624,26.981s-28.871,26.986-41.156,77.662c0,0,4.607-8.117,8.775-9.214c0,0-8.775,31.59,1.536,57.477
	c0,0-1.536-8.994,2.194-14.26c0,0,6.143,58.354,50.896,65.374s49.924-32.696,49.924-32.696s-14.919,15.797-35.96,10.479
	S91.092,280.53,91.092,280.53s-4.478-23.365,10.32-34.695c14.798-11.33,37.28-7.104,37.28-7.104s23.348,3.996,37.866,32.759
	c11.236,22.259,11.56,43.71,11.56,56.889c0,0-5.78-6.012-6.937-10.405c0,0-6.705,35.839,19.191,75.839c0,0-4.856-0.231-12.486-9.942
	c0,0,4.393,25.434,26.821,45.087c0,0-11.098-4.401-15.26-9.022c0,0,17.572,33.531,52.024,54.34
	c34.451,20.81,62.08,9.017,62.08,9.017L295.723,427.523z"/>
<path fill="#FFFFFF" d="M192.878,217.821c35.97,41.688,20.522,106.994,25.056,149.267c4.209,39.244,9.005,73.479,40.289,95.468
	c14.31,10.058,32.843,14.499,50.226,13.563c-3.87-9.123-7.739-18.246-11.609-27.369c0,0-14.555-0.953-21.843-4.711
	c-32.436-16.725-37.848-55.495-42.522-85.613C225.248,311.846,227.921,258.434,192.878,217.821z"/>
<path fill="#FFFFFF" d="M326.822,216.629c0-21.179,0-60.028,28.387-60.028c28.387,0,28.387,38.849,28.387,60.028H326.822z"/>
<circle fill="#C49A6C" cx="360.444" cy="195.528" r="17.244"/>
<circle cx="360.444" cy="195.528" r="11.851"/>
<circle fill="#FFFFFF" cx="364.225" cy="190.974" r="2.658"/>
<path fill="#FFFFFF" d="M425.982,216.629c0-21.258,0-60.251,28.493-60.251c28.493,0,28.493,38.993,28.493,60.251H425.982z"/>
<circle fill="#C49A6C" cx="449.414" cy="195.528" r="17.244"/>
<circle cx="449.414" cy="195.528" r="11.851"/>
<circle fill="#FFFFFF" cx="453.195" cy="190.974" r="2.658"/>
<path fill="#A97C50" d="M507.064,372.685c20.468,14.935,6.163,32.473-8.393,42.022c-15.566,10.212-38.273,17.472-56.759,8.149
	c-8.304-4.188-17.642-21.747-5.417-27.161c5.946-2.633,12.821,0.562,19.007,0.753c15.216,0.47,22.646,2.764,32.136-10.149
	C492.494,379.693,496.133,368.922,507.064,372.685z"/>
<path fill="none" stroke="#000000" stroke-width="4" stroke-linecap="round" stroke-miterlimit="10" d="M403.359,290.197
	c0,11.966-16.07,21.65-32.139,13.421"/>
</svg>
