<?xml version="1.0" encoding="utf-8"?>
<!-- Generator: Adobe Illustrator 17.0.0, SVG Export Plug-In . SVG Version: 6.00 Build 0)  -->
<!DOCTYPE svg PUBLIC "-//W3C//DTD SVG 1.1//EN" "http://www.w3.org/Graphics/SVG/1.1/DTD/svg11.dtd">
<svg version="1.1" id="Layer_1" xmlns="http://www.w3.org/2000/svg" xmlns:xlink="http://www.w3.org/1999/xlink" x="0px" y="0px"
	 width="69.414px" height="141.121px" viewBox="0 0 69.414 141.121" enable-background="new 0 0 69.414 141.121"
	 xml:space="preserve">
<g>
	<path opacity="0.7" fill="#FBB03C" d="M36.01,0c0,0-35.142,65.337-35.979,88.954c-0.837,23.615,15.173,40.42,54.904,27.551
		C96.253,103.123,36.01,0,36.01,0"/>
	<path opacity="0.7" fill="#F79421" d="M54.607,15.1c0,0-45.766,50.268-51.549,70.572c-5.782,20.302,5.16,37.735,43.925,33.737
		C87.296,115.249,54.607,15.1,54.607,15.1"/>
	<polygon fill="#432517" points="48.447,95.386 35.757,103.912 35.757,84.582 39.827,81.495 49.117,85.072 49.895,83.053 
		41.854,79.957 48.256,75.1 46.95,73.376 35.757,81.866 35.757,60.082 32.738,60.082 32.738,70.686 25.875,65.306 24.539,67.009 
		32.738,73.435 32.738,95.061 26.134,91.586 25.168,81.971 23.014,82.188 23.838,90.378 16.853,86.703 15.845,88.618 32.738,97.506 
		32.738,113.084 21.477,107.16 20.469,109.075 32.738,115.53 32.738,141.121 35.757,141.121 35.757,106.519 49.654,97.181 	"/>
</g>
</svg>
