<?xml version="1.0" encoding="utf-8"?>
<!-- Generator: Adobe Illustrator 17.0.0, SVG Export Plug-In . SVG Version: 6.00 Build 0)  -->
<!DOCTYPE svg PUBLIC "-//W3C//DTD SVG 1.1//EN" "http://www.w3.org/Graphics/SVG/1.1/DTD/svg11.dtd">
<svg version="1.1" id="Layer_1" xmlns="http://www.w3.org/2000/svg" xmlns:xlink="http://www.w3.org/1999/xlink" x="0px" y="0px"
	 width="250.964px" height="205.687px" viewBox="0 0 250.964 205.687" enable-background="new 0 0 250.964 205.687"
	 xml:space="preserve">
<g>
	<rect x="187.272" y="151.731" fill="#432416" width="9.027" height="22.349"/>
	<polygon fill="#378B50" points="250.964,152.014 225.772,107.235 237.582,106.32 218.688,77.077 230.497,76.162 205.305,43.264 
		216.326,42.35 191.922,0.312 191.656,1.361 191.645,0 167.242,42.037 178.263,42.951 153.072,75.851 164.881,76.764 
		145.986,106.01 157.796,106.921 132.604,151.702 153.301,151.431 153.281,151.514 	"/>
</g>
<g>
	<g opacity="0.7">
		<path fill="#5D8B50" d="M82.969,101.333c-11.226-6.164-24.575-21.559-26.317-23.597H56.45
			c-1.74,2.039-15.091,17.434-26.317,23.597c0,0-4.7,2.816-2.444,2.816c2.11,0,23.622,2.082,28.862-1.192
			c5.239,3.274,26.752,1.192,28.863,1.192C87.669,104.148,82.969,101.333,82.969,101.333z"/>
		<path fill="#5D8B50" d="M92.407,119.092c-15.238-6.162-33.357-21.557-35.718-23.595h-0.275
			c-2.362,2.037-20.481,17.432-35.718,23.595c0,0-6.381,2.817-3.317,2.817c2.864,0,32.061,2.083,39.172-1.192
			c7.111,3.275,36.309,1.192,39.173,1.192C98.787,121.909,92.407,119.092,92.407,119.092z"/>
		<path fill="#5D8B50" d="M99.147,139.865c-18.103-7.741-39.628-27.078-42.433-29.641h-0.326
			c-2.805,2.563-24.331,21.9-42.434,29.641c0,0-7.579,3.535-3.941,3.535c3.403,0,38.089,2.617,46.537-1.495
			c8.448,4.112,43.135,1.495,46.538,1.495C106.727,143.4,99.147,139.865,99.147,139.865z"/>
		<path fill="#5D8B50" d="M107.237,159.79c-21.54-7.74-47.154-27.078-50.492-29.638h-0.387c-3.338,2.56-28.952,21.898-50.492,29.638
			c0,0-9.019,3.538-4.69,3.538c4.048,0,39.3,4.065,55.469-4.166c14.478,10.18,51.232,4.166,55.28,4.166
			C116.256,163.328,107.237,159.79,107.237,159.79z"/>
		<path fill="#5D8B50" d="M78.251,83.571c-9.223-6.162-20.188-21.559-21.617-23.597h-0.166
			c-1.429,2.039-12.395,17.435-21.617,23.597c0,0-3.86,2.817-2.007,2.817c1.733,0,19.403,2.082,23.706-1.192
			c4.304,3.274,21.974,1.192,23.707,1.192C82.111,86.388,78.251,83.571,78.251,83.571z"/>
		<path fill="#5D8B50" d="M71.51,63.643c-6.357-6.161-13.916-21.557-14.902-23.595h-0.115c-0.985,2.037-8.544,17.433-14.901,23.595
			c0,0-2.661,2.817-1.384,2.817c1.195,0,13.376,2.083,16.342-1.192c2.967,3.275,15.147,1.192,16.343,1.192
			C74.171,66.46,71.51,63.643,71.51,63.643z"/>
	</g>
	<path fill="#432416" d="M57.036,158.803H56.11c-1.633,1-3.582,2.075-5.582,2.64v23.36h12v-22.562
		C61.528,161.492,58.746,160.803,57.036,158.803z"/>
</g>
<g>
	<rect x="122.641" y="162.679" fill="#432416" width="11.573" height="43.008"/>
	<polygon opacity="0.7" fill="#F64D1E" points="128.236,162.803 149.236,162.803 128.427,18.87 106.944,163.253 	"/>
</g>
</svg>
