<?xml version="1.0" encoding="utf-8"?>
<!-- Generator: Adobe Illustrator 17.0.0, SVG Export Plug-In . SVG Version: 6.00 Build 0)  -->
<!DOCTYPE svg PUBLIC "-//W3C//DTD SVG 1.1//EN" "http://www.w3.org/Graphics/SVG/1.1/DTD/svg11.dtd">
<svg version="1.1" id="Layer_1" xmlns="http://www.w3.org/2000/svg" xmlns:xlink="http://www.w3.org/1999/xlink" x="0px" y="0px"
	 width="158.709px" height="203.46px" viewBox="0 0 158.709 203.46" enable-background="new 0 0 158.709 203.46"
	 xml:space="preserve">
<g>
	<g opacity="0.7">
		<path fill="#5E8C50" d="M116.425,85.996c-15.753-8.649-34.485-30.252-36.928-33.113h-0.283
			c-2.442,2.861-21.176,24.463-36.929,33.113c0,0-6.595,3.951-3.43,3.951c2.961,0,33.148,2.922,40.5-1.673
			c7.352,4.594,37.539,1.673,40.501,1.673C123.021,89.947,116.425,85.996,116.425,85.996z"/>
		<path fill="#5E8C50" d="M129.668,110.917c-21.382-8.647-46.807-30.25-50.121-33.109h-0.385
			c-3.315,2.859-28.739,24.461-50.121,33.109c0,0-8.954,3.953-4.655,3.953c4.019,0,44.989,2.924,54.968-1.673
			c9.979,4.596,50.95,1.673,54.969,1.673C138.622,114.87,129.668,110.917,129.668,110.917z"/>
		<path fill="#5E8C50" d="M139.128,140.067c-25.403-10.863-55.607-37.997-59.544-41.593h-0.458
			c-3.936,3.596-34.142,30.73-59.545,41.593c0,0-10.635,4.961-5.53,4.961c4.775,0,53.448,3.673,65.303-2.098
			c11.854,5.771,60.529,2.098,65.304,2.098C149.763,145.027,139.128,140.067,139.128,140.067z"/>
		<path fill="#5E8C50" d="M150.479,168.026c-30.226-10.861-66.168-37.997-70.853-41.589h-0.543
			c-4.685,3.592-40.627,30.728-70.852,41.589c0,0-12.656,4.965-6.581,4.965c5.681,0,55.147,5.704,77.836-5.845
			c20.316,14.285,71.891,5.845,77.572,5.845C163.135,172.991,150.479,168.026,150.479,168.026z"/>
		<path fill="#5E8C50" d="M109.804,61.072C96.863,52.425,81.476,30.82,79.471,27.96h-0.232
			c-2.006,2.861-17.393,24.465-30.334,33.113c0,0-5.417,3.953-2.816,3.953c2.431,0,27.227,2.922,33.266-1.673
			c6.039,4.594,30.835,1.673,33.267,1.673C115.222,65.025,109.804,61.072,109.804,61.072z"/>
		<path fill="#5E8C50" d="M100.345,33.109C91.424,24.463,80.817,2.859,79.435,0h-0.161c-1.382,2.859-11.99,24.463-20.909,33.109
			c0,0-3.734,3.953-1.942,3.953c1.677,0,18.769,2.924,22.932-1.673c4.164,4.596,21.255,1.673,22.933,1.673
			C104.079,37.062,100.345,33.109,100.345,33.109z"/>
	</g>
	<path fill="#432517" d="M80.034,167.46h-1.299c-2.291,1-5.123,2.093-8.123,2.886v33.114h17v-31.995
		C85.612,170.414,82.434,169.46,80.034,167.46z"/>
</g>
</svg>
