<?xml version="1.0" encoding="utf-8"?>
<!-- Generator: Adobe Illustrator 17.0.0, SVG Export Plug-In . SVG Version: 6.00 Build 0)  -->
<!DOCTYPE svg PUBLIC "-//W3C//DTD SVG 1.1//EN" "http://www.w3.org/Graphics/SVG/1.1/DTD/svg11.dtd">
<svg version="1.1" id="Layer_1" xmlns="http://www.w3.org/2000/svg" xmlns:xlink="http://www.w3.org/1999/xlink" x="0px" y="0px"
	 width="293.6px" height="463.678px" viewBox="0 0 293.6 463.678" enable-background="new 0 0 293.6 463.678" xml:space="preserve">
<g>
	<path opacity="0.7" fill="#C5CB38" d="M149.048,15.156c0,0-111.69,207.659-114.35,282.72c-2.66,75.056,48.224,128.467,174.5,87.566
		C340.518,342.909,149.048,15.156,149.048,15.156"/>
	<path opacity="0.7" fill="#9DB021" d="M208.156,63.147c0,0-145.458,159.765-163.838,224.298
		C25.942,351.972,60.719,407.379,183.923,394.67C312.05,381.448,208.156,63.147,208.156,63.147"/>
	<polygon fill="#432416" points="188.577,318.318 148.244,345.416 148.244,283.981 161.179,274.169 190.705,285.537 
		193.178,279.122 167.622,269.282 187.971,253.844 183.819,248.364 148.244,275.349 148.244,206.114 138.648,206.114 
		138.648,239.816 116.837,222.717 112.59,228.13 138.648,248.553 138.648,317.287 117.66,306.24 114.588,275.681 107.742,276.372 
		110.363,302.403 88.162,290.722 84.959,296.809 138.648,325.057 138.648,374.57 102.857,355.739 99.656,361.828 138.648,382.342 
		138.648,463.678 148.244,463.678 148.244,353.701 192.413,324.024 	"/>
</g>
</svg>
