<?xml version="1.0" encoding="utf-8"?>
<!-- Generator: Adobe Illustrator 17.0.0, SVG Export Plug-In . SVG Version: 6.00 Build 0)  -->
<!DOCTYPE svg PUBLIC "-//W3C//DTD SVG 1.1//EN" "http://www.w3.org/Graphics/SVG/1.1/DTD/svg11.dtd">
<svg version="1.1" id="Layer_1" xmlns="http://www.w3.org/2000/svg" xmlns:xlink="http://www.w3.org/1999/xlink" x="0px" y="0px"
	 width="400px" height="538.878px" viewBox="0 0 400 538.878" enable-background="new 0 0 400 538.878" xml:space="preserve">
<path opacity="0.7" fill="#C5E848" d="M204.891,141.619c0,0,4.649,22.793,9.188,28.65c4.538,5.857,11.768,6.691,18.756-4.383
	C240.102,154.369,204.891,141.619,204.891,141.619"/>
<path opacity="0.7" fill="#C5E848" d="M153.432,153.257c0,0-22.493,5.933-28.083,10.796c-5.59,4.863-6.014,12.128,5.439,18.477
	C142.698,189.133,153.432,153.257,153.432,153.257"/>
<path opacity="0.7" fill="#C5CB38" d="M103.311,132.699c0,0-13.846,24.497-12.697,32.045c1.149,7.548,10.579,11.09,30.322,2.652
	C141.468,158.621,103.311,132.699,103.311,132.699"/>
<path opacity="0.7" fill="#C5CB38" d="M163.464,256.274c0,0-13.846,24.497-12.697,32.045c1.149,7.548,10.579,11.09,30.322,2.652
	C201.621,282.197,163.464,256.274,163.464,256.274"/>
<path opacity="0.7" fill="#C5CB38" d="M222.115,141.866c0,0-22.41,10.029-27.4,16.051c-4.99,6.021-4.187,13.661,8.827,18.313
	C217.076,181.068,222.115,141.866,222.115,141.866"/>
<path opacity="0.7" fill="#C5E848" d="M229.742,205.609c0,0-26.095,11.678-31.906,18.69c-5.81,7.012-4.876,15.907,10.279,21.324
	C223.875,251.258,229.742,205.609,229.742,205.609"/>
<path opacity="0.7" fill="#C5E848" d="M261.363,264.181c0,0-6.156,27.919-3.983,36.762c2.173,8.843,9.876,13.389,23.252,4.44
	C294.543,296.076,261.363,264.181,261.363,264.181"/>
<path opacity="0.7" fill="#C5E848" d="M221.822,285.314c0,0-19.806,20.617-22.56,29.298c-2.754,8.68,1.45,16.574,17.53,15.909
	C233.514,329.828,221.822,285.314,221.822,285.314"/>
<path opacity="0.7" fill="#C5E848" d="M150.391,239.41c0,0-19.806,20.617-22.56,29.298c-2.754,8.68,1.45,16.574,17.53,15.909
	C162.083,283.924,150.391,239.41,150.391,239.41"/>
<path opacity="0.7" fill="#C5E848" d="M257.174,203.235c0,0-19.806,20.617-22.56,29.298c-2.754,8.68,1.45,16.574,17.53,15.909
	C268.866,247.749,257.174,203.235,257.174,203.235"/>
<path opacity="0.7" fill="#C5CB38" d="M163.116,145.677c0,0-19.806,20.617-22.56,29.298c-2.754,8.68,1.45,16.574,17.53,15.909
	C174.808,190.191,163.116,145.677,163.116,145.677"/>
<path opacity="0.7" fill="#C5CB38" d="M251.808,275.278c0,0-14.218,24.803-14.787,33.892c-0.569,9.088,5.424,15.729,20.863,11.186
	C273.94,315.631,251.808,275.278,251.808,275.278"/>
<path opacity="0.7" fill="#C5E848" d="M128.373,216.788c0,0-19.806,20.617-22.56,29.298c-2.754,8.68,1.45,16.574,17.53,15.909
	C140.066,261.302,128.373,216.788,128.373,216.788"/>
<path opacity="0.7" fill="#C5CB38" d="M234.487,278.987c0,0-13.221,25.348-13.428,34.453c-0.207,9.104,6.045,15.501,21.291,10.348
	C258.206,318.429,234.487,278.987,234.487,278.987"/>
<path opacity="0.7" fill="#C5E848" d="M319.349,342.52c0,0-12.28-25.818-19.425-31.464c-7.145-5.646-16.016-4.506-21.08,10.771
	C273.576,337.713,319.349,342.52,319.349,342.52"/>
<path opacity="0.7" fill="#C5CB38" d="M288.369,364.23c0,0,6.858-30.615,4.505-40.328c-2.353-9.712-10.789-14.729-25.501-4.957
	C252.074,329.107,288.369,364.23,288.369,364.23"/>
<path opacity="0.7" fill="#C5CB38" d="M121.401,207.638c0,0,6.858-30.615,4.505-40.328c-2.353-9.712-10.789-14.729-25.501-4.957
	C85.106,172.515,121.401,207.638,121.401,207.638"/>
<path opacity="0.7" fill="#C5CB38" d="M234.544,276.354c0,0,5.587-24.941,3.67-32.853c-1.917-7.912-8.789-11.999-20.774-4.038
	C204.977,247.741,234.544,276.354,234.544,276.354"/>
<path opacity="0.7" fill="#C5CB38" d="M237.154,366.63c0,0,16.089-19.86,17.888-27.8c1.799-7.94-2.541-14.655-16.815-12.85
	C223.382,327.858,237.154,366.63,237.154,366.63"/>
<path opacity="0.7" fill="#C5CB38" d="M352.584,311.836c0,0-30.546-24.738-42.758-27.503c-12.211-2.765-22.538,3.912-19.758,25.864
	C292.959,333.025,352.584,311.836,352.584,311.836"/>
<path opacity="0.7" fill="#C5CB38" d="M137.748,81.948c0,0,21.303,42.796,33.417,52.022c12.114,9.226,26.911,7.054,34.921-18.638
	C214.416,88.614,137.748,81.948,137.748,81.948"/>
<path opacity="0.7" fill="#C5E848" d="M236.433,67.524c0,0-43.634,19.527-53.35,31.253c-9.715,11.724-8.153,26.599,17.188,35.657
	C226.623,143.854,236.433,67.524,236.433,67.524"/>
<path opacity="0.7" fill="#C5E848" d="M158.047,158.453c0,0,6.279,31.733,12.242,40.535c5.962,8.801,15.374,11.33,24.35-2.298
	C203.972,182.517,158.047,158.453,158.047,158.453"/>
<path opacity="0.7" fill="#C5CB38" d="M41.307,228.058c0,0,33.099,45.831,49.011,54.262c15.911,8.431,32.758,3.047,37.156-28.472
	C132.047,221.071,41.307,228.058,41.307,228.058"/>
<path opacity="0.7" fill="#C5CB38" d="M67.566,196.64c0,0,32.915,1.269,42.498-3.005c9.582-4.273,13.161-13.937,0.277-27.273
	C96.943,152.494,67.566,196.64,67.566,196.64"/>
<path opacity="0.7" fill="#C5CB38" d="M71.891,292.465c0,0,32.915,1.269,42.498-3.005c9.582-4.273,13.161-13.937,0.277-27.273
	C101.268,248.319,71.891,292.465,71.891,292.465"/>
<path opacity="0.7" fill="#C5E848" d="M114.211,216.098c0,0,32.915,1.269,42.498-3.005c9.582-4.273,13.161-13.937,0.277-27.273
	C143.588,171.951,114.211,216.098,114.211,216.098"/>
<path opacity="0.7" fill="#C5CB38" d="M149.11,229.876c0,0,24.313,2.183,31.225-0.863c6.912-3.046,9.205-10.58-0.77-21.613
	C169.191,195.925,149.11,229.876,149.11,229.876"/>
<path opacity="0.7" fill="#C5CB38" d="M218.102,204.313c0,0,19.051-15.262,21.928-22.246c2.877-6.984-0.686-14.007-15.523-15.059
	C209.077,165.914,218.102,204.313,218.102,204.313"/>
<path opacity="0.7" fill="#C5CB38" d="M140.075,336.238c0,0,19.577-18.722,22.604-26.841c3.027-8.118-0.487-15.786-15.54-15.836
	C131.485,293.51,140.075,336.238,140.075,336.238"/>
<path opacity="0.7" fill="#C5CB38" d="M112.184,316.269c0,0,29.382-5.933,37.471-11.515c8.089-5.582,10.302-14.365-2.484-22.702
	C133.875,273.382,112.184,316.269,112.184,316.269"/>
<path opacity="0.7" fill="#C5E848" d="M155.871,335.951c0,0,23.72-5.765,29.283-10.875c5.562-5.11,5.307-12.981-7.691-20.214
	C163.946,297.341,155.871,335.951,155.871,335.951"/>
<path opacity="0.7" fill="#C5CB38" d="M123.266,131.542c0,0-14.219,21.03-14.685,28.715c-0.466,7.684,5.741,13.269,21.463,9.357
	C146.395,165.545,123.266,131.542,123.266,131.542"/>
<path opacity="0.7" fill="#C5CB38" d="M271.519,190.956c0,0-14.219,21.03-14.685,28.715c-0.466,7.684,5.741,13.269,21.463,9.357
	C294.647,224.958,271.519,190.956,271.519,190.956"/>
<path opacity="0.7" fill="#C5E848" d="M227.152,124.903c0,0-0.452,25.382,3.348,32.078c3.799,6.696,12.048,7.992,23.094-3.86
	C265.081,140.794,227.152,124.903,227.152,124.903"/>
<path opacity="0.7" fill="#C5CB38" d="M234.865,206.18c0,0-14.219,21.03-14.685,28.715c-0.466,7.684,5.741,13.269,21.463,9.357
	C257.993,240.183,234.865,206.18,234.865,206.18"/>
<path opacity="0.7" fill="#C5CB38" d="M100.884,203.969c0,0-5.3,31.595-2.725,41.721c2.575,10.126,10.692,15.52,24.154,5.718
	C136.312,241.216,100.884,203.969,100.884,203.969"/>
<path opacity="0.7" fill="#C5E848" d="M45.083,136.302c0,0,24.682,35.844,36.783,42.608c12.1,6.764,25.159,2.911,29.087-21.271
	C115.039,132.49,45.083,136.302,45.083,136.302"/>
<path opacity="0.7" fill="#C5CB38" d="M191.943,20.549c0,0-29.908,56.354-30.515,76.667c-0.607,20.312,13.241,34.687,47.346,23.431
	C244.242,108.942,191.943,20.549,191.943,20.549"/>
<path opacity="0.7" fill="#C5E848" d="M278.774,189.63c0,0-1.986,24.295,1.243,30.949c3.228,6.653,11.049,8.409,22.352-2.26
	C314.124,207.223,278.774,189.63,278.774,189.63"/>
<path opacity="0.7" fill="#C5E848" d="M350.074,276.727c0,0-36.876-2.574-46.907,2.442c-10.031,5.015-12.553,16.906,3.83,33.854
	C324.034,330.648,350.074,276.727,350.074,276.727"/>
<path opacity="0.7" fill="#C5CB38" d="M360.602,182.807c0,0-27.81,38.883-41.232,46.075c-13.421,7.191-27.689,2.704-31.53-23.931
	C283.846,177.251,360.602,182.807,360.602,182.807"/>
<path opacity="0.7" fill="#C5CB38" d="M300.384,258.596c0,0,5.717,26.735,3.585,35.178c-2.132,8.443-9.526,12.744-22.262,4.104
	C268.461,288.894,300.384,258.596,300.384,258.596"/>
<path opacity="0.7" fill="#C5CB38" d="M309.551,256.724c0,0,3.103-25.073,0.458-32.673c-2.645-7.6-9.798-10.962-20.825-1.98
	C277.717,231.411,309.551,256.724,309.551,256.724"/>
<path opacity="0.7" fill="#C5E848" d="M352.428,235.759c0,0-26.849-23.161-37.782-25.996c-10.933-2.835-20.431,2.896-18.539,22.767
	C298.074,253.194,352.428,235.759,352.428,235.759"/>
<path opacity="0.7" fill="#C5E848" d="M263.636,199.699c0,0,10.62-25.558,10.053-34.356c-0.566-8.797-7.133-14.441-21.404-8.189
	C237.445,163.655,263.636,199.699,263.636,199.699"/>
<path opacity="0.7" fill="#C5E848" d="M107.537,311.192c0,0,22.519-16.09,26.686-23.86c4.167-7.768,1.573-16.03-13.847-18.261
	C104.341,266.752,107.537,311.192,107.537,311.192"/>
<path opacity="0.7" fill="#C5E848" d="M229.009,366.825c0,0-2.126-27.595-6.62-35.179c-4.494-7.584-12.906-9.636-22.79,2.408
	C189.32,346.579,229.009,366.825,229.009,366.825"/>
<path opacity="0.7" fill="#C5E848" d="M214.033,210.299c0,0-2.126-27.595-6.62-35.179c-4.494-7.584-12.906-9.636-22.79,2.408
	C174.344,190.052,214.033,210.299,214.033,210.299"/>
<path opacity="0.7" fill="#C5E848" d="M263.636,365.118c0,0,10.62-25.558,10.053-34.356c-0.566-8.797-7.133-14.441-21.404-8.189
	C237.445,329.074,263.636,365.118,263.636,365.118"/>
<path opacity="0.7" fill="#C5CB38" d="M246.296,199.699c0,0,10.62-25.558,10.053-34.356c-0.566-8.797-7.133-14.441-21.404-8.189
	C220.105,163.655,246.296,199.699,246.296,199.699"/>
<path opacity="0.7" fill="#C5E848" d="M286.017,259.303c0,0,10.62-25.558,10.053-34.356c-0.566-8.797-7.133-14.441-21.404-8.189
	C259.825,223.259,286.017,259.303,286.017,259.303"/>
<path opacity="0.7" fill="#C5CB38" d="M346.312,101.382c0,0-65.271,11.649-82.279,24.171c-17.006,12.521-19.891,33.063,11.175,53.75
	C307.516,200.817,346.312,101.382,346.312,101.382"/>
<path opacity="0.7" fill="#C5CB38" d="M267.177,77.098c0,0-26.577,39.736-28.573,54.832c-1.996,15.095,7.234,26.863,33.513,21.064
	C299.446,146.964,267.177,77.098,267.177,77.098"/>
<polygon fill="#432416" points="292.236,223.122 335.367,230.232 301.717,216.965 352.428,187.576 202.393,239.41 199.209,192.21 
	311.67,137.81 261.902,151.086 260.954,126.437 256.692,152.504 197.978,173.972 190.284,74.775 180.723,198.094 124.931,172.411 
	121.615,148.712 120.188,170.986 81.8,156.296 179.212,215.752 172.944,288.959 118.77,259.618 107.391,215.541 107.391,253.929 
	71.847,241.136 171.26,308.635 149.855,538.878 222.566,538.304 209.917,350.915 327.784,288.057 297.925,296.235 296.503,266.725 
	290.814,298.01 208.342,327.552 204.54,271.24 "/>
</svg>
